<?xml version="1.0" encoding="UTF-8" standalone="no"?>
<!-- Created with Inkscape (http://www.inkscape.org/) -->

<svg
   xmlns:dc="http://purl.org/dc/elements/1.1/"
   xmlns:cc="http://creativecommons.org/ns#"
   xmlns:rdf="http://www.w3.org/1999/02/22-rdf-syntax-ns#"
   xmlns:svg="http://www.w3.org/2000/svg"
   xmlns="http://www.w3.org/2000/svg"
   xmlns:sodipodi="http://sodipodi.sourceforge.net/DTD/sodipodi-0.dtd"
   xmlns:inkscape="http://www.inkscape.org/namespaces/inkscape"
   width="210mm"
   height="297mm"
   viewBox="0 0 744.09448819 1052.3622047"
   id="svg2"
   version="1.1"
   inkscape:version="0.91 r13725"
   sodipodi:docname="gravure-dragon-ball-four-chibi-sangohan-9-anime-manga-3.svg">
  <title
     id="title3349">Chibi Sangohan Dragon Ball 4</title>
  <defs
     id="defs4" />
  <sodipodi:namedview
     id="base"
     pagecolor="#ffffff"
     bordercolor="#666666"
     borderopacity="1.0"
     inkscape:pageopacity="0.0"
     inkscape:pageshadow="2"
     inkscape:zoom="0.35"
     inkscape:cx="467.99997"
     inkscape:cy="174.28571"
     inkscape:document-units="px"
     inkscape:current-layer="layer1"
     showgrid="false"
     inkscape:window-width="1538"
     inkscape:window-height="877"
     inkscape:window-x="-8"
     inkscape:window-y="-8"
     inkscape:window-maximized="1" />
  <metadata
     id="metadata7">
    <rdf:RDF>
      <cc:Work
         rdf:about="">
        <dc:format>image/svg+xml</dc:format>
        <dc:type
           rdf:resource="http://purl.org/dc/dcmitype/StillImage" />
        <dc:title>Chibi Sangohan Dragon Ball 4</dc:title>
      </cc:Work>
    </rdf:RDF>
  </metadata>
  <g
     inkscape:label="Calque 1"
     inkscape:groupmode="layer"
     id="layer1">
    <path
       style="fill:#000000"
       d="m 467.21608,1038.1564 c -37.34067,-1.4988 -61.83682,-4.9539 -81.14763,-11.4458 -15.10043,-5.0765 -25.00229,-12.1289 -27.3381,-19.4712 -0.40761,-1.2812 -0.34841,-1.5562 0.72087,-3.3491 1.1437,-1.9177 1.20296,-1.9588 3.24958,-2.2526 l 2.08465,-0.2993 0.2468,-6.14532 c 0.27713,-6.90005 1.17152,-12.80785 2.3388,-15.44851 0.59787,-1.35254 1.04193,-1.84592 1.88532,-2.09479 1.01382,-0.29913 1.12221,-0.49665 1.33689,-2.43612 0.2266,-2.04697 0.18814,-2.16565 -1.27513,-3.93757 -1.29662,-1.57011 -1.7213,-1.85034 -3.02071,-1.99308 -1.92159,-0.21109 -28.86143,0.16397 -35.75364,0.49777 l -5.20002,0.25186 0,1.13065 c 0,0.62187 -0.27105,1.67977 -0.60233,2.35087 -0.56217,1.13881 -0.54748,1.32812 0.22029,2.83875 0.58012,1.1414 0.80296,2.22301 0.75589,3.66883 -0.0727,2.23169 2.07402,15.31148 2.95335,17.99487 0.90716,2.76829 1.05119,4.25189 0.62848,6.47359 -0.60149,3.1613 -2.11148,5.4808 -5.30077,8.1424 -9.41671,7.8586 -30.90196,12.5526 -66.35332,14.4966 -9.47282,0.5195 -41.06621,0.5133 -51.36969,-0.01 -15.73371,-0.7992 -24.52318,-2.9668 -30.37791,-7.4916 -6.34009,-4.8999 -8.17946,-12.026 -5.20221,-20.15445 l 0.80487,-2.19737 11.62851,-9.15523 11.62851,-9.15518 3.6277,-5.92079 3.6277,-5.92078 4.56333,-0.98993 c 2.50982,-0.54448 4.55987,-1.1424 4.55565,-1.32872 -0.005,-0.18636 -0.67551,-1.31042 -1.49173,-2.49796 l -1.48406,-2.15917 -3.11961,-0.44517 c -25.12112,-3.58468 -51.65443,-9.53772 -70.81801,-15.88881 -7.9576,-2.63728 -20.20664,-7.71007 -24.83669,-10.28587 l -3.4479,-1.9181 0.25621,-2.83836 c 0.14091,-1.56107 0.67915,-6.27641 1.19608,-10.47848 0.51694,-4.20209 1.54557,-15.78688 2.28585,-25.74398 l 1.34596,-18.10383 3.14032,-15.61248 3.14032,-15.61248 4.70878,-13.12112 c 2.58982,-7.21663 5.04986,-14.04486 5.46676,-15.1739 l 0.758,-2.05274 -3.38424,-2.14107 c -9.56267,-6.04987 -17.95511,-16.12826 -23.71579,-28.48002 l -1.788035,-3.83379 -0.664709,-14.10395 c -0.877351,-18.61545 -0.622262,-29.46692 1.011683,-43.03688 l 1.195911,-9.93213 4.26852,-13.45331 4.26851,-13.4533 6.5181,-11.96102 6.5181,-11.96105 5.33774,-5.8106 c 2.93575,-3.19584 5.7586,-6.27389 6.27298,-6.8401 l 0.93525,-1.02942 -0.58853,-10.09861 c -0.32369,-5.55422 -0.58166,-10.84599 -0.57328,-11.75948 l 0.0153,-1.66091 4.94548,-3.11303 c 4.68739,-2.95059 5.44942,-3.29456 14.60213,-6.59109 l 9.65663,-3.47803 15.10949,-2.82008 c 8.31023,-1.55104 15.36394,-2.8889 15.67491,-2.97301 0.34657,-0.0937 -0.32522,-0.60703 -1.73568,-1.32616 -5.69533,-2.90392 -11.72635,-7.46562 -15.01683,-11.35834 -2.31099,-2.73394 -4.33122,-6.70716 -4.66127,-9.16738 l -0.26322,-1.96202 -0.96335,1.3807 c -0.52984,0.7594 -1.15978,1.38071 -1.39985,1.38071 -0.24008,0 -3.28525,-0.59563 -6.76705,-1.32364 -28.8047,-6.0227 -50.15918,-18.29536 -65.033274,-37.37537 C 94.20716,539.7154 88.98033,530.7967 86.522964,524.99387 80.067319,509.74938 77.117752,491.995 78.134437,474.50056 l 0.386099,-6.64361 3.977953,-8.36407 3.977965,-8.3641 -4.310724,-5.58747 c -3.000186,-3.889 -8.30684,-9.77879 -17.454903,-19.37319 C 46.93209,407.52194 47.809648,408.49968 32.511057,390.29264 19.39157,374.67898 18.831723,373.9488 14.36613,366.62718 l -4.6077507,-7.55471 -0.5588054,-4.23768 c -0.7723726,-5.85741 -0.7110689,-7.75273 0.3682964,-11.38719 0.5142047,-1.73145 1.5296737,-5.66373 2.2566127,-8.7384 l 1.321686,-5.59033 11.520454,-11.51697 c 6.336244,-6.33434 14.025834,-13.83393 17.087983,-16.66578 3.062138,-2.83183 11.245259,-10.92568 18.184701,-17.98631 L 72.556489,270.11228 86.93791,258.87329 c 7.909778,-6.18144 14.94027,-11.56991 15.62334,-11.97435 0.68305,-0.40446 15.01708,-7.78684 31.85337,-16.4053 23.06795,-11.80843 30.9983,-15.71146 32.18128,-15.83846 1.48732,-0.15967 1.66836,-0.31038 3.44478,-2.86772 6.77124,-9.74781 21.2154,-24.36936 33.02035,-33.42588 17.49079,-13.41861 35.57177,-22.83617 55.173,-28.73712 2.26643,-0.6823 6.68154,-2.14099 9.81136,-3.2415 4.12794,-1.45149 9.88557,-2.99101 20.96703,-5.60635 8.40205,-1.98297 15.59868,-3.6054 15.99253,-3.6054 1.09782,0 0.87993,-0.48893 -1.18425,-2.65711 -9.18584,-9.64876 -16.93398,-21.70196 -20.81986,-32.38791 -7.78381,-21.405106 -2.07346,-40.69837 16.38133,-55.346823 12.15073,-9.644614 30.03138,-17.871861 52.45227,-24.134355 10.83812,-3.027247 10.54596,-2.984655 14.3989,-2.099158 14.1798,3.258846 31.68139,9.306306 43.29192,14.958973 39.82382,19.388537 51.55523,44.985228 34.33977,74.925863 -5.06337,8.80605 -13.93661,19.57819 -22.48172,27.29285 -2.20693,1.99248 -2.4969,1.79377 3.84014,2.6316 4.03376,0.5333 4.80619,0.77083 11.77363,3.62055 4.10115,1.67739 11.69515,4.95406 16.87555,7.28149 5.1804,2.32743 12.24458,5.19868 15.69818,6.38055 27.4192,9.3833 48.77672,27.31676 60.27459,50.61129 l 2.20908,4.47564 8.68212,3.76911 c 8.53164,3.70379 9.20176,4.07538 38.66537,21.4406 l 29.98329,17.67149 11.98493,9.46096 11.98493,9.46097 19.94981,21.42934 c 10.9724,11.78614 21.41503,22.84775 23.20583,24.58134 8.19092,7.92923 13.62759,16.92487 15.23952,25.21567 0.71686,3.68707 0.5335,9.4008 -0.39571,12.33232 -1.20225,3.7929 -6.28967,9.95004 -21.25809,25.72794 -10.00445,10.54549 -19.0402,20.58972 -30.67535,34.09901 -11.49946,13.35176 -18.11911,20.71437 -21.86238,24.31606 l -5.3689,5.16587 2.27573,1.92722 c 4.27485,3.62016 6.8532,9.18013 8.59491,18.5342 0.82043,4.40601 1.11964,17.56094 0.61576,27.0727 -0.39461,7.4496 -0.4036,7.50199 -2.75691,16.01747 l -2.36101,8.54341 -5.7201,9.43529 -5.72011,9.43524 -5.78469,5.58173 c -3.1816,3.06995 -8.63349,8.88128 -12.11531,12.91408 -5.89476,6.82754 -6.57535,7.48867 -9.88464,9.60227 -1.95469,1.24847 -3.479,2.44431 -3.38739,2.65745 0.0917,0.21315 -1.85247,1.50865 -4.32018,2.8789 -2.46776,1.37024 -4.64984,2.79032 -4.84905,3.15571 -0.70509,1.29325 -4.07274,4.1416 -6.47213,5.47414 -6.82019,3.78769 -17.21651,4.31133 -27.50384,1.38532 l -3.35568,-0.95445 -0.46247,1.19973 c -1.54616,4.01108 -8.93466,10.79945 -19.60013,18.0081 -1.94943,1.31755 -3.40414,2.49846 -3.23272,2.62422 0.17138,0.12573 11.79095,4.01088 25.82119,8.63367 14.03026,4.62275 25.96601,8.59836 26.52393,8.83467 0.77419,0.32792 1.6801,1.66233 3.82643,5.63617 1.54662,2.86356 2.81205,5.42829 2.81205,5.69935 0,0.27109 -0.70893,2.5253 -1.57539,5.00939 l -1.57539,4.51648 5.63407,4.83515 5.63408,4.83518 3.24031,5.31489 c 3.19976,5.24835 3.33072,5.56236 10.46036,25.07962 7.13769,19.53918 7.24267,19.87086 9.20259,29.06578 1.09035,5.11558 2.01831,9.39931 2.06215,9.51939 0.0438,0.12005 3.87047,-1.11981 8.50375,-2.75527 4.63327,-1.63546 12.13898,-4.07349 16.67931,-5.41782 l 8.25521,-2.44426 9.20302,0.24439 c 8.84302,0.23482 9.30364,0.21585 11.77364,-0.48505 5.93763,-1.68482 5.90655,-1.68342 13.75631,-0.62404 l 7.15873,0.96612 0.77749,2.15917 c 0.42762,1.18754 0.82843,2.20515 0.89067,2.26132 0.42099,0.38005 8.33696,1.08663 10.6482,0.95051 l 2.79651,-0.16474 1.91294,1.46196 c 1.70024,1.29939 1.83657,1.50116 1.22615,1.81473 -1.72233,0.88484 -0.69252,1.92446 5.54876,5.60173 7.08518,4.17441 10.88924,8.63838 12.76654,14.9811 0.65269,2.20532 1.99909,5.01204 4.47049,9.31945 l 3.53653,6.16377 -0.74685,3.08194 c -0.41074,1.69505 -0.84958,3.22262 -0.97512,3.39462 -0.12559,0.17197 0.30407,1.69169 0.95476,3.37718 0.65069,1.68545 1.83225,5.1572 2.62572,7.71499 1.42805,4.60355 1.44769,4.75623 1.94315,15.1142 l 0.50055,10.46369 -1.94407,5.70297 -1.94411,5.70296 0.82722,1.37248 0.82726,1.37247 -1.04943,5.7135 -1.04938,5.7135 1.09852,9.80962 1.09852,9.80962 -4.69787,5.47068 c -3.71471,4.32572 -6.28065,7.90393 -12.26041,17.09698 l -7.56251,11.62633 -12.6272,10.71281 -12.62721,10.71281 -3.14954,0 -3.14952,0 0.15164,2.54182 c 0.13175,2.20816 0.0705,2.51543 -0.46647,2.34101 -0.33998,-0.11042 -2.72579,-1.31006 -5.30182,-2.66582 l -4.68368,-2.46508 -1.62557,1.95103 c -0.89406,1.07308 -1.78568,1.95103 -1.98132,1.95103 -0.53393,0 -0.78883,-0.44901 -2.96793,-5.22786 l -2.00518,-4.3974 -3.23338,-2.38047 -3.2334,-2.38047 -2.91888,-0.15855 -2.91888,-0.15855 0,-6.29466 0,-6.29464 -3.33586,1.53912 c -3.99182,1.84174 -3.76486,2.40114 -2.35474,-5.80366 1.25261,-7.2883 1.27392,-6.89918 -0.39245,-7.1638 -0.75547,-0.11994 -1.37359,-0.34476 -1.37359,-0.49957 0,-0.15482 0.44756,-3.44656 0.99456,-7.31501 0.54705,-3.86844 0.93502,-7.08391 0.86222,-7.14553 -0.0728,-0.0616 -1.86094,0.86639 -3.97363,2.06225 -2.11274,1.19581 -3.89363,2.12555 -3.95756,2.06602 -0.0639,-0.0595 0.0694,-3.50446 0.29646,-7.65549 l 0.41267,-7.5473 2.36395,-1.42157 c 1.30017,-0.78186 2.5205,-1.51202 2.71194,-1.6226 0.19211,-0.11095 -0.14282,-2.21082 -0.74767,-4.68746 l -1.09565,-4.48647 2.02809,-2.6205 c 2.1838,-2.82171 3.80269,-5.63773 4.21523,-7.33241 0.31982,-1.31381 -0.82619,-2.48665 -2.14465,-2.19482 -0.80433,0.17805 -0.83032,0.10407 -0.62089,-1.7686 0.1202,-1.07493 0.4036,-6.51358 0.62976,-12.08591 0.33233,-8.18745 0.60568,-11.10636 1.42465,-15.212 0.55741,-2.7943 0.90775,-5.17003 0.77852,-5.27938 -0.12924,-0.10939 -1.14986,0.12294 -2.26804,0.51627 -1.11822,0.39334 -2.11972,0.64184 -2.22557,0.55222 -0.10591,-0.0895 -0.51243,-1.77271 -0.90343,-3.74028 -0.391,-1.96754 -0.81497,-4.06526 -0.94212,-4.66163 l -0.2312,-1.08423 -1.68359,0.8351 c -0.92599,0.45934 -1.86605,0.83514 -2.089,0.83514 -0.22295,0 -0.52168,-0.85952 -0.66388,-1.91004 l -0.25847,-1.91004 -2.98688,-1.66089 c -1.64278,-0.91351 -3.45929,-1.91968 -4.03668,-2.23598 l -1.04981,-0.57508 -6.05746,3.35058 c -3.33158,1.84281 -6.11358,3.39479 -6.18218,3.44879 -0.0686,0.054 -0.29317,1.61334 -0.499,3.46511 -1.28062,11.51991 -7.14134,22.91141 -17.27197,33.57161 -3.41004,3.58828 -9.15569,8.65492 -12.88875,11.36555 l -2.52777,1.83543 4.58525,17.57656 c 4.34895,16.67067 4.77691,18.6599 8.30403,38.59577 l 3.71873,21.01924 1.19957,20.28579 c 0.97687,16.5192 1.11549,20.64764 0.74661,22.2347 l -0.45301,1.9489 -2.79454,0.67695 c -1.53698,0.37231 -3.85415,0.96202 -5.14924,1.31048 -1.29511,0.34843 -13.74572,3.2563 -27.66805,6.4619 -24.05495,5.53865 -25.93764,5.91887 -37.87187,7.64862 -7.4675,1.08235 -15.14662,1.98657 -18.94284,2.23053 -3.51137,0.22565 -6.52266,0.4922 -6.69178,0.59234 -0.16911,0.10017 -0.89056,2.57377 -1.60317,5.49696 l -1.2957,5.31488 1.10276,0.66436 c 4.98268,3.00178 6.29694,5.14999 5.91955,9.67592 l -0.22958,2.75377 4.3949,2.79656 c 15.01927,9.5572 24.4407,19.08661 26.80909,27.11641 0.82768,2.8063 0.57101,6.8032 -0.6027,9.3861 -2.56693,5.6486 -10.04115,10.726 -19.90714,13.5234 l -3.58998,1.0178 -12.69688,-0.063 c -6.9833,-0.034 -13.75652,-0.1054 -15.05162,-0.1573 z m 26.91509,-3.1086 c 20.22409,-4.3706 26.96413,-12.8857 19.3639,-24.4635 -4.19369,-6.3885 -13.01886,-14.23022 -23.90959,-21.24503 l -3.14014,-2.02258 -2.85931,0.035 c -1.99018,0.0242 -2.96237,0.17629 -3.19835,0.49967 -0.18646,0.25554 -0.5585,1.65878 -0.82674,3.11834 l -0.48774,2.65376 -3.96627,-0.20051 -3.9663,-0.2005 -5.69059,5.014 -5.69059,5.014 -7.10488,-1.8618 -7.10493,-1.86182 -2.90267,0.56142 c -4.64513,0.8983 -19.858,0.7918 -27.82357,-0.19476 -12.85878,-1.59266 -27.75223,-4.74865 -41.17676,-8.72558 -2.28648,-0.67734 -3.38786,-0.86536 -3.5742,-0.61014 -0.14816,0.20285 -1.12337,2.84551 -2.16722,5.87254 l -1.89785,5.50364 2.73633,2.2086 c 10.88501,8.7857 31.10657,15.5596 54.51748,18.2624 6.16714,0.712 15.52051,1.4506 15.76363,1.2448 0.078,-0.066 -0.81237,-4.3658 -1.97875,-9.5549 -1.16637,-5.1891 -2.04896,-9.4995 -1.96129,-9.5786 0.49068,-0.4433 1.02218,1.3614 2.87928,9.7771 1.12886,5.1156 2.13852,9.3758 2.24371,9.4672 0.1051,0.091 5.69521,0.151 12.4224,0.1326 11.06949,-0.03 24.33418,-0.6449 30.16076,-1.3975 l 1.77989,-0.2299 -9.19289,-10.581 c -5.05607,-5.8196 -9.10314,-10.6569 -8.99345,-10.7498 0.37401,-0.3165 2.29033,1.7299 10.72017,11.4484 7.40546,8.5375 8.55481,9.7156 9.47354,9.7111 1.27963,-0.01 10.19884,-1.0584 17.23947,-2.0334 7.01987,-0.9722 7.40633,-0.6154 1.82307,1.6832 -5.65688,2.3289 -11.23943,3.7624 -14.8214,3.8058 l -3.08363,0.038 -1.31504,-1.2849 -1.315,-1.285 -6.78628,0.535 c -41.69634,3.2872 -76.15887,-0.9179 -99.27225,-12.1133 -4.30318,-2.0843 -8.85142,-4.9245 -11.64852,-7.2741 l -2.09625,-1.7609 -1.74343,1.4757 -1.74342,1.4757 0.63902,1.2945 c 2.43108,4.9248 9.41916,10.3192 18.74918,14.4734 21.25978,9.4659 53.77385,14.1033 101.84141,14.5253 6.90014,0.061 8.40022,-0.021 11.08606,-0.6012 z m -255.51987,-9.6287 c 41.05711,-1.4825 68.46356,-5.8192 80.86069,-12.795 6.36055,-3.5791 8.62625,-7.8687 6.69945,-12.6841 -0.81289,-2.03154 -1.99996,-10.73822 -2.00345,-14.69446 l -0.001,-1.80908 -1.27548,1.00586 c -2.01305,1.58764 -7.45225,4.35818 -10.75057,5.47606 -8.71099,2.95237 -23.83239,4.56138 -38.20813,4.06566 -3.34568,-0.11539 -12.20283,-0.0978 -19.68256,0.0392 l -13.59951,0.249 -3.66849,2.44757 c -2.01767,1.34616 -3.86341,2.45023 -4.10163,2.45349 -0.23824,0.003 -3.48106,-2.11284 -7.20626,-4.70245 l -6.7731,-4.70839 -1.82021,0.60368 c -3.34713,1.11004 -3.48103,1.05018 -5.27416,-2.35736 l -1.59553,-3.03208 -2.21312,-0.16984 c -2.76468,-0.2122 -5.02138,-1.16818 -6.72547,-2.84908 l -1.31765,-1.29969 -11.73367,10.45787 -11.73367,10.45786 -1.11921,3.0216 c -0.61557,1.6619 -1.11922,3.2851 -1.11922,3.6071 0,1.2698 19.29923,5.6833 32.3775,7.4045 4.87059,0.6409 13.70634,1.51 15.3528,1.51 1.15509,0 1.78924,-0.6319 10.51395,-10.4763 5.10661,-5.762 9.45092,-10.38935 9.65404,-10.28308 0.20314,0.10624 -3.76678,4.85798 -8.82202,10.55928 l -9.19133,10.3661 6.35578,0.2632 c 9.4146,0.3897 32.14561,-0.7439 35.40107,-1.7654 0.65396,-0.2053 1.25169,-1.7285 3.50132,-8.9228 1.49201,-4.7714 2.85905,-8.67532 3.03787,-8.67532 0.53968,0 0.42153,0.46851 -2.24392,8.89742 -1.41294,4.4681 -2.47146,8.2065 -2.35223,8.3074 0.36099,0.3056 7.83997,-0.907 15.22595,-2.4687 11.37206,-2.4044 22.74003,-5.7611 32.05417,-9.465 2.2673,-0.9017 4.24432,-1.5015 4.43015,-1.3443 0.38765,0.3281 -5.53047,2.723 -12.64546,5.1172 -38.32762,12.8973 -82.76934,14.6016 -123.46483,4.7347 -3.25857,-0.7901 -6.59701,-1.6743 -7.41877,-1.9649 -0.82175,-0.2906 -1.5669,-0.4668 -1.65587,-0.3915 -0.089,0.075 0.0443,0.7848 0.29626,1.5767 2.36091,7.4211 11.31209,12.2041 26.28048,14.0426 4.6128,0.5666 24.52797,0.6696 37.67563,0.1948 z m 226.31222,-30.80733 c 2.51811,-2.69482 4.72519,-5.04068 4.90459,-5.21304 0.19516,-0.18749 0.7701,0.0466 1.43115,0.58264 l 1.10501,0.89605 2.13533,-0.6123 2.13539,-0.61234 0.54952,-2.21256 0.54951,-2.21255 2.65625,0 2.65621,0 0.86662,-2.20422 c 1.17477,-2.98796 1.18152,-5.83046 0.0189,-7.86357 -0.76936,-1.34527 -1.26636,-1.72056 -3.57973,-2.70325 l -2.68632,-1.14111 -2.31874,1.2685 c -3.0713,1.6802 -4.09181,2.91202 -3.9349,4.74975 0.10788,1.26351 0.23599,1.42761 1.18682,1.52039 0.82682,0.0806 1.38654,0.55076 2.49526,2.09563 0.78614,1.09536 1.33529,2.07121 1.22031,2.1685 -0.48562,0.41104 -1.91962,-0.36115 -3.58869,-1.93246 l -1.7859,-1.6813 -2.1461,0.22695 c -1.18035,0.12484 -2.53887,0.49618 -3.01895,0.82521 -0.85312,0.5847 -0.85516,0.603 -0.0913,0.80822 0.66392,0.17835 3.691,3.98331 3.691,4.6395 0,0.12091 -0.29238,0.2198 -0.64975,0.2198 -1.12599,0 -3.33912,-1.69954 -4.09392,-3.14383 l -0.72585,-1.38887 -6.48622,-1.28265 -6.48621,-1.28268 -2.25834,0.59447 c -3.16609,0.83344 -5.11345,1.81982 -6.006,3.04221 -0.84853,1.1621 -1.00709,2.17764 -0.31997,2.04958 0.37542,-0.07 4.17155,5.72825 4.24085,6.47752 0.0126,0.13703 -0.22809,0.24913 -0.53506,0.24913 -0.75504,0 -3.17014,-2.4366 -4.20021,-4.23768 -0.69606,-1.21705 -0.97812,-1.42954 -1.66981,-1.25804 -4.92052,1.21997 -9.00107,1.61413 -16.92292,1.63462 -4.60915,0.0119 -9.97125,-0.16768 -12.16609,-0.40751 -10.05649,-1.09898 -22.72174,-3.67259 -33.08615,-6.7232 -3.17175,-0.93356 -6.28128,-1.77776 -6.91003,-1.87595 -1.74748,-0.27292 -2.19268,0.52677 -2.19268,3.93853 l 0,2.90226 2.18782,0.69286 c 1.2033,0.38104 4.69124,1.34865 7.75097,2.1502 26.25054,6.87686 49.89439,9.32148 64.2556,6.64354 1.60761,-0.29975 3.34653,-0.62456 3.86427,-0.72176 0.6269,-0.11772 0.85186,-0.0542 0.67345,0.19014 -0.34242,0.46897 2.26929,2.92924 3.85005,3.62685 2.05748,0.90798 4.25358,1.37213 6.60164,1.39525 l 2.25508,0.0222 4.57842,-4.89966 z m -227.88204,-1.04066 2.94341,-2.63655 7.45665,0.2782 c 10.64222,0.39709 32.83185,0.38673 39.90103,-0.0186 16.15812,-0.92645 28.70411,-3.23211 32.22097,-5.92142 2.81483,-2.15242 4.61037,-5.94253 4.03822,-8.52397 l -0.24913,-1.12403 -2.40764,1.31716 c -1.3242,0.72442 -3.8091,1.69186 -5.52199,2.14984 -6.50048,1.73813 -8.04062,1.82925 -36.5851,2.16442 -14.6778,0.17237 -27.96447,0.40161 -29.52594,0.5094 l -2.83902,0.19602 -0.42835,1.38392 c -0.99167,3.20398 -1.62941,4.91236 -1.78473,4.78088 -0.0911,-0.0771 -0.4041,-1.69511 -0.69555,-3.59556 -0.44578,-2.90684 -0.44513,-4.0049 0.005,-6.91695 0.29371,-1.90387 0.47933,-3.50786 0.4125,-3.56444 -0.0668,-0.0565 -5.38637,1.54471 -11.82119,3.55839 -6.43481,2.01367 -11.78353,3.59023 -11.88603,3.50347 -0.39753,-0.33646 0.43398,-0.9205 2.67206,-1.87678 l 2.33018,-0.99561 -0.76937,-1.27651 c -1.05448,-1.74949 -2.98566,-2.51999 -5.1053,-2.0369 -1.52149,0.34677 -4.86143,2.25475 -5.77686,3.30011 -0.25216,0.28794 -0.59912,0.4045 -0.77103,0.25901 -0.32954,-0.27893 -0.21523,-0.45097 1.54617,-2.32725 l 1.10157,-1.1734 -1.02319,-2.93348 c -1.42604,-4.08855 -2.16952,-5.75709 -2.56526,-5.75709 -0.68086,0 -8.56888,6.86199 -9.96366,8.66761 -3.59642,4.65582 -1.34317,6.83136 6.79825,6.56389 l 3.56998,-0.11729 0.003,1.6609 c 0.003,1.66253 1.38809,4.81133 2.33267,5.30545 1.04719,0.5478 2.28674,-0.17323 3.40112,-1.97837 0.62157,-1.00687 1.23232,-1.83104 1.35724,-1.83148 0.12489,0 2.82587,2.61513 6.00215,5.81237 5.5529,5.58954 5.83101,5.81349 7.22953,5.82216 1.31351,0.008 1.7398,-0.24655 4.39789,-2.62751 z m 192.79331,-9.54666 1.4717,-0.21243 0,-7.26448 0,-7.26453 6.66585,0 6.66583,0 1.93292,-1.00667 c 1.92043,-1.0002 1.96549,-1.00611 6.95531,-0.9135 l 5.02232,0.0932 0.44693,1.32872 c 1.04299,3.10074 1.05614,2.99284 -0.4202,3.44471 l -1.35766,0.41552 0.58402,1.18313 c 0.67556,1.36855 0.72603,1.76634 0.22405,1.76634 -0.198,0 -0.67216,-0.69184 -1.05367,-1.53744 -0.74759,-1.65688 -0.7718,-1.60476 1.21378,-2.61486 0.57158,-0.29075 0.59525,-0.52647 0.1896,-1.88994 l -0.4634,-1.55772 -4.3745,-0.1031 c -4.36017,-0.10277 -4.38089,-0.0996 -6.33155,0.97645 l -1.95701,1.07958 -6.57888,0 -6.57883,0 0,6.83614 0,6.83613 2.64907,-0.23647 c 1.45699,-0.13005 3.05918,-0.36656 3.56042,-0.52561 0.50125,-0.15902 3.64787,-1.87452 6.99245,-3.8122 l 6.08108,-3.52311 4.58497,1.5769 c 2.52171,0.86726 5.01101,1.75992 5.53172,1.98365 0.83696,0.35961 1.23353,0.26601 3.41868,-0.80698 2.12129,-1.04165 2.78274,-1.61997 4.66369,-4.07767 l 2.19178,-2.86389 2.04241,-0.21277 c 4.29032,-0.44688 4.08302,-0.32822 4.55133,-2.60555 0.23266,-1.13105 0.54026,-2.78135 0.68363,-3.66731 l 0.2607,-1.61087 -2.90401,0.21203 c -3.11118,0.22711 -82.83495,4.27203 -95.9157,4.8664 -4.31699,0.19616 -8.08307,0.41882 -8.36905,0.49479 -0.38095,0.10115 -0.18751,0.62991 0.72373,1.97797 1.04381,1.54421 1.22179,2.11449 1.10751,3.54879 l -0.13619,1.70889 3.14078,1.23735 c 8.43235,3.322 21.0984,6.01514 32.57486,6.92631 4.02427,0.3195 17.67365,0.1946 20.30953,-0.18585 z m -177.09512,-7.38334 c 0,-1.98213 0.11653,-4.77074 0.25897,-6.19693 l 0.25896,-2.59307 10.77764,0.20284 c 5.92769,0.11157 10.83422,0.25072 10.90341,0.30928 0.36618,0.30996 0.95207,8.69599 0.62678,8.97133 -0.23054,0.19513 -0.46335,-0.60296 -0.62006,-2.12562 -0.138,-1.34091 -0.34859,-3.27666 -0.46797,-4.30163 l -0.21706,-1.8636 -2.97046,-0.21253 c -1.63375,-0.1169 -6.18583,-0.21253 -10.11574,-0.21253 l -7.1453,0 -0.25212,2.04182 c -0.13868,1.123 -0.25214,3.73892 -0.25214,5.81315 l 0,3.77135 2.06039,-0.005 c 3.74878,-0.01 20.02018,-0.64476 25.60766,-0.9985 13.30071,-0.84204 25.05709,-2.45538 31.91142,-4.37913 3.86503,-1.0848 7.96535,-3.07599 8.68815,-4.21912 0.36733,-0.58095 0.30067,-0.70174 -0.46245,-0.83766 -0.49042,-0.0874 -18.99364,-1.52697 -41.11826,-3.19913 -22.12463,-1.67213 -46.45167,-3.51523 -54.06009,-4.09576 -12.05346,-0.91966 -13.80963,-0.98992 -13.64791,-0.54606 0.10209,0.28015 0.45832,1.61602 0.79163,2.96856 0.76377,3.09924 4.26084,8.50697 5.26267,8.13802 0.34486,-0.12702 1.70321,-0.2997 3.01858,-0.38371 2.24338,-0.14329 2.47896,-0.0878 3.80247,0.89576 0.77599,0.57671 1.61598,1.5745 1.86663,2.21734 0.25066,0.64284 0.6588,1.10124 0.90699,1.01867 0.24819,-0.0826 4.13782,-1.44439 8.64362,-3.02623 4.50581,-1.58181 8.38061,-2.90718 8.61069,-2.94528 0.53509,-0.0886 0.56668,0.0979 0.87491,5.16261 l 0.25776,4.23531 3.1001,0 3.10013,0 0,-3.60386 z m 87.71359,-10.67907 c 12.0876,-0.18356 24.62653,-0.41559 27.86428,-0.51565 3.23775,-0.10006 13.65741,-0.31228 23.15481,-0.47166 l 17.268,-0.28972 37.4083,-3.18621 c 30.28062,-2.57908 41.04859,-3.63196 56.51346,-5.52582 l 19.10516,-2.33965 20.40764,-5.60368 c 11.22419,-3.08201 23.93952,-6.56375 28.25633,-7.73715 l 7.84866,-2.13346 0.27213,-1.29616 c 0.4337,-2.06573 0.37416,-14.08512 -0.0697,-14.08512 -0.21294,0 -14.82697,4.04303 -32.47561,8.98448 l -32.08849,8.98448 -14.91328,2.65479 -14.91327,2.65475 -20.99632,1.81763 c -97.46832,8.43781 -102.75288,8.85899 -108.51369,8.64798 -3.0219,-0.11064 -17.06196,-0.72568 -31.20014,-1.36672 l -25.70577,-1.16552 -35.50535,-3.82752 c -19.52795,-2.10513 -39.83748,-4.19687 -45.13228,-4.64829 -15.42524,-1.31521 -26.88331,-2.98143 -40.23837,-5.85133 -19.46745,-4.18344 -39.52878,-10.4682 -56.59355,-17.72946 l -7.14428,-3.03999 -0.19684,0.86278 c -0.10823,0.47452 -0.41699,3.08748 -0.68608,5.80657 l -0.48921,4.94378 1.15861,0.78763 c 1.92613,1.30936 7.18163,3.92807 11.78826,5.87385 14.49376,6.12198 32.41941,11.19979 55.30272,15.66559 16.57685,3.23507 26.96791,4.69282 59.26064,8.31358 20.63171,2.31327 24.2301,2.6213 46.30964,3.96421 15.71548,0.95585 25.4902,1.40944 28.45296,1.32038 2.48228,-0.0747 14.40308,-0.28584 26.49068,-0.46937 z M 381.798,954.17309 c 11.7964,-1.00252 39.63826,-3.39532 61.87081,-5.31735 l 40.42282,-3.4946 14.71704,-2.63073 14.71705,-2.63077 31.98505,-8.94652 c 27.29529,-7.63473 32.00227,-9.04321 32.1025,-9.60615 0.0646,-0.36284 -1.84214,-15.57581 -4.23721,-33.8066 l -4.35472,-33.14692 -3.7076,-15.65187 c -2.03914,-8.60852 -3.70861,-15.75744 -3.70994,-15.88649 0,-0.12905 -1.37108,0.59773 -3.04392,1.6151 -8.28111,5.03625 -18.85599,9.47604 -30.31712,12.72839 -8.31614,2.35986 -21.34972,4.73781 -28.55573,5.20991 -1.78332,0.11683 -3.48269,0.37709 -3.7764,0.57833 -0.29367,0.20126 -0.91458,1.79473 -1.37978,3.54104 -1.5119,5.67543 -1.21933,5.24652 -5.72632,8.39439 l -4.11558,2.87447 -22.07989,0.71641 -22.07989,0.71641 -1.54352,0.8644 c -0.84892,0.47538 -2.08515,1.32228 -2.74718,1.88193 -1.03738,0.87699 -10.49204,7.10651 -21.246,13.99858 -3.48841,2.23571 -4.15303,2.53192 -17.36263,7.73821 -9.83636,3.87684 -12.01106,4.4553 -23.03303,6.12667 -28.1159,4.26357 -54.33263,2.05493 -76.8402,-6.4734 -15.65868,-5.93324 -30.31254,-15.49269 -40.71413,-26.55988 -1.11613,-1.18755 -2.16682,-2.28354 -2.33489,-2.43558 -0.16806,-0.15204 -0.67584,-0.0806 -1.1284,0.15855 -1.17754,0.62244 -1.99293,0.29581 -10.59136,-4.24274 l -7.47192,-3.94391 -1.81487,-4.16923 c -0.99818,-2.29307 -1.95452,-4.36047 -2.1252,-4.59422 -0.2039,-0.27926 -7.28736,-1.27019 -20.6558,-2.88961 -22.45562,-2.72022 -20.97309,-2.56436 -20.97309,-2.20497 0,0.14276 -1.77891,3.02028 -3.95313,6.39446 -2.17422,3.37416 -6.17615,9.72239 -8.8932,14.10717 -5.56609,8.9826 -5.11682,8.32514 -5.47919,8.0184 -0.14994,-0.12688 0.22295,-1.08596 0.82864,-2.13126 0.60569,-1.04531 1.16791,-2.21166 1.24936,-2.59194 0.0815,-0.38024 2.69666,-5.91112 5.81152,-12.29087 3.11488,-6.37973 5.72176,-11.79736 5.79309,-12.03918 0.12724,-0.4314 -3.29815,-1.51259 -27.1029,-8.55464 -4.61711,-1.36586 -8.45781,-2.43 -8.53487,-2.36476 -0.0771,0.0652 1.18021,9.4491 2.79392,20.85306 2.38674,16.86665 3.30882,22.31451 4.94311,29.20503 l 2.00906,8.4706 5.31038,9.46714 c 9.85976,17.57758 11.53788,20.66394 11.33078,20.83923 -0.35748,0.30258 -4.76485,-3.13957 -7.01235,-5.47662 -12.75172,-13.25988 -19.7152,-35.00862 -21.0649,-65.79105 -0.18977,-4.32807 -0.65364,-9.9974 -1.03083,-12.5985 l -0.68579,-4.72925 -7.42354,-3.52274 c -4.08295,-1.93751 -7.52127,-3.44004 -7.64073,-3.33891 -0.11944,0.10114 -2.67209,10.0927 -5.67254,22.20356 -7.22182,29.1499 -8.08429,34.46126 -9.74968,60.04243 -0.94075,14.45028 -1.07904,18.16794 -0.68709,18.47006 0.26991,0.20801 5.61227,3.11738 11.87192,6.46526 6.25965,3.34784 11.46948,6.18692 11.57741,6.30904 0.10788,0.12207 2.05057,0.82925 4.31699,1.57144 25.29034,8.28192 49.55916,13.23828 74.37015,15.18845 3.66944,0.2884 23.36085,2.3167 43.75867,4.50732 l 37.08696,3.98294 27.47182,1.28152 c 15.1095,0.70482 29.12292,1.30009 31.14092,1.32278 2.01801,0.0226 13.32068,-0.77893 25.11709,-1.78142 z M 223.30558,932.88987 c -23.71555,-6.73712 -42.31364,-22.88109 -53.36111,-46.31976 -3.23694,-6.86761 -6.1862,-15.65161 -7.63989,-22.75436 -0.67358,-3.29121 -0.79817,-5.45806 -0.28553,-4.9661 0.18087,0.17357 1.26069,2.55779 2.39962,5.29827 4.35602,10.48156 10.60518,21.78536 17.08493,30.90414 12.25886,17.25163 26.92668,29.7029 43.07746,36.56777 3.98567,1.69413 5.09046,2.4593 3.53209,2.44635 -0.37775,-0.003 -2.54115,-0.53249 -4.80757,-1.17631 z m 234.29537,-9.25531 c 0,-0.10365 7.85772,-7.5513 17.46164,-16.55032 l 17.46167,-16.36188 12.44587,-14.86507 12.44587,-14.86507 1.78316,0.0232 c 3.59183,0.047 4.00269,-0.76916 -7.3774,14.65417 l -10.46213,14.17923 -21.32613,16.87964 c -18.96047,15.00728 -22.43255,17.62396 -22.43255,16.90605 z m 23.69593,-40.6354 c -0.3702,-0.68512 -0.73773,-1.35177 -0.8167,-1.48142 -0.12103,-0.19864 18.19094,-17.14456 22.59671,-20.91105 1.2413,-1.06118 1.7407,-1.24568 3.92259,-1.44904 1.63226,-0.15214 2.44974,-0.11646 2.35473,0.10277 -0.23218,0.53598 -26.72087,24.98438 -27.0694,24.98438 -0.17319,0 -0.61773,-0.56055 -0.98793,-1.24567 z m 172.90492,11.32394 1.74717,-0.64069 1.78492,-6.93382 c 1.12862,-4.38433 1.97769,-6.98808 2.3092,-7.08126 0.41118,-0.1156 0.47707,0.23691 0.30538,1.63373 -0.12046,0.97963 -0.3312,4.38926 -0.46832,7.57696 l -0.24933,5.79582 1.43296,-1.06491 c 0.96996,-0.72082 1.71268,-1.01586 2.29869,-0.91315 0.47621,0.0834 2.01494,0.24215 3.41942,0.35264 l 2.55362,0.20087 2.35207,-4.02843 c 2.19416,-3.75805 2.4179,-4.01675 3.33319,-3.85448 0.53962,0.0957 1.5551,0.27488 2.25661,0.39818 l 1.27548,0.22423 0,-2.81225 c 0,-4.86953 0.50462,-12.92247 0.79256,-12.6481 0.15184,0.1447 1.12552,2.62397 2.16372,5.50946 l 1.88763,5.24635 1.92676,-1.59237 c 1.05974,-0.87579 2.77406,-2.41452 3.80963,-3.41937 l 1.88284,-1.82699 1.10644,-9.21801 c 0.60855,-5.0699 1.21096,-9.218 1.33871,-9.218 0.12778,0 0.5545,2.50381 0.94828,5.56402 1.21167,9.41562 0.47119,9.4694 6.16037,-0.44735 2.715,-4.73251 5.89192,-10.43136 7.05978,-12.66414 1.16787,-2.23275 2.21172,-4.06137 2.31964,-4.06353 0.10788,-0.003 0.61436,0.81357 1.1254,1.81281 0.51102,0.99923 1.08785,1.73378 1.28188,1.6323 0.19399,-0.10147 0.25604,-0.31691 0.13791,-0.47871 -0.11818,-0.16183 0.75885,-1.93747 1.94889,-3.9459 l 2.16367,-3.65172 -1.97572,-14.28785 -1.9757,-14.28784 2.18314,-6.32026 2.18315,-6.32027 -0.98239,-13.4622 -0.9824,-13.46217 -1.19647,-2.00617 -1.19648,-2.00617 0.4578,-5.54645 0.4578,-5.54642 -3.62145,-7.97233 c -1.99179,-4.38478 -3.82412,-8.29461 -4.07183,-8.68848 -0.24776,-0.39386 -2.9121,-3.98566 -5.92077,-7.98176 l -5.47034,-7.26561 -5.91085,-3.49481 -5.91083,-3.49477 -7.38976,-1.40614 c -6.56404,-1.249 -7.90204,-1.62347 -11.97426,-3.3513 l -4.5845,-1.94519 -6.24014,1.1815 -6.24015,1.1815 -5.33287,-0.4236 c -2.93308,-0.23299 -6.05396,-0.53322 -6.9353,-0.66718 -1.20876,-0.18377 -2.26929,-0.0558 -4.317,0.52112 -1.49301,0.42061 -8.98402,2.36097 -16.6467,4.31193 -7.66268,1.95097 -14.08551,3.66342 -14.27298,3.8055 -0.19188,0.14539 0.13379,7.78348 0.74511,17.47567 1.08274,17.16645 1.08388,17.23243 0.38405,22.29203 -0.38605,2.79105 -0.62196,5.14232 -0.52428,5.22503 0.0977,0.0827 2.85822,-1.49086 6.13442,-3.49679 3.27621,-2.00595 6.14047,-3.64715 6.36503,-3.64715 0.2246,0 2.65449,1.68177 5.39981,3.73726 2.74535,2.05547 6.17544,4.55928 7.62246,5.56402 2.58639,1.79587 2.63882,1.8643 3.09944,4.04566 0.2577,1.2204 0.60022,2.39931 0.76122,2.61978 0.16098,0.22047 1.21185,0.47558 2.33529,0.56697 l 2.04261,0.16612 -0.25616,3.35947 c -0.44795,5.87441 -0.99903,11.17727 -1.72883,16.63496 l -0.70914,5.30316 0.93625,4.29997 c 0.61761,2.83665 1.26327,4.77231 1.89724,5.68796 0.52856,0.76339 0.96101,1.56015 0.96101,1.77056 0,0.2104 -1.22961,2.56241 -2.73239,5.22666 l -2.73243,4.84409 0.56615,4.70955 c 0.92146,7.66502 0.92412,7.64659 -1.45051,9.95747 -1.90461,1.85346 -2.07463,2.16784 -2.70825,5.00848 -0.3718,1.66695 -0.61403,3.08569 -0.53825,3.15276 0.0757,0.0671 1.42689,-0.33434 3.00255,-0.89191 l 2.86481,-1.01378 0.45026,5.87458 c 0.24764,3.23105 0.46839,6.05947 0.49057,6.28539 0.022,0.2259 0.65841,0.62934 1.4139,0.89655 1.00786,0.35643 1.37268,0.68928 1.37017,1.25013 -0.007,1.56519 -1.1453,8.80769 -1.694,10.77789 l -0.56847,2.04121 2.37047,-0.18193 2.37042,-0.18194 -0.27961,6.81737 c -0.26216,6.39162 -0.23528,6.83259 0.43044,7.06146 1.7255,0.59321 6.18638,1.83517 6.59159,1.83517 0.29178,0 0.69699,-2.18147 1.17237,-6.31144 1.03189,-8.96498 1.30362,-8.70881 2.54064,2.39486 l 0.80339,7.21147 2.06141,3.12628 c 1.1338,1.7195 2.14975,3.0162 2.25767,2.88157 0.10788,-0.1346 0.98248,-0.53306 1.9434,-0.88539 z M 361.05712,879.11249 c 5.30271,-0.68579 14.2487,-2.5543 19.34939,-4.04144 4.81211,-1.40296 18.08112,-6.8687 23.88914,-9.84031 9.17704,-4.69534 16.03082,-9.68073 18.06967,-13.14378 l 1.02124,-1.73465 -2.24049,-1.80885 c -2.7478,-2.21844 -5.11195,-5.64647 -7.41499,-10.75185 -1.9961,-4.42494 -4.77217,-13.44703 -5.79094,-18.82022 -0.38104,-2.00968 -0.74273,-3.70652 -0.80375,-3.77074 -0.061,-0.0643 -1.13792,0.41191 -2.39311,1.05803 -4.1006,2.11081 -6.91823,2.30789 -10.16837,0.71117 -1.84047,-0.9042 -4.13012,-3.5372 -5.25509,-6.04313 -0.71513,-1.59307 -0.728,-1.82197 -0.17652,-3.14495 2.71551,-6.51449 -0.80069,-11.36701 -8.96618,-12.37372 l -1.87633,-0.23133 -8.07918,4.40185 -8.0792,4.4019 0.22462,1.60536 c 0.12355,0.88293 1.22767,4.2559 2.45363,7.49545 l 2.22901,5.89011 -0.87471,19.93083 c -0.99142,22.59045 -0.59112,20.48865 -4.54316,23.85407 -4.67248,3.97893 -8.25231,3.81436 -10.73264,-0.49336 -2.48972,-4.32405 -3.2282,-9.21368 -2.73967,-18.14 0.3,-5.48164 0.25877,-7.12487 -0.23943,-9.54298 -1.62574,-7.8909 -0.81424,-20.11112 1.59509,-24.01989 0.30162,-0.48933 0.5495,-1.06511 0.55083,-1.27946 0.005,-0.78571 -1.9923,-2.36379 -3.84561,-3.03861 -1.77893,-0.64776 -2.02941,-0.66128 -3.81657,-0.20603 -6.3651,1.62141 -15.24016,1.92426 -17.35619,0.59222 -1.3487,-0.84899 -1.64092,-2.86144 -0.65288,-4.49626 0.9342,-1.54574 4.10944,-4.87591 6.2165,-6.51984 1.56139,-1.21821 1.8751,-1.70541 2.55167,-3.96295 1.1616,-3.87591 1.38828,-5.88666 0.79932,-7.09016 -0.46933,-0.95903 -0.62096,-1.02453 -2.00711,-0.86718 -1.86887,0.21215 -5.51766,2.39474 -8.96608,5.36324 l -2.55095,2.19592 -0.45985,13.19586 c -0.72133,20.69932 -1.1256,24.03123 -3.45711,28.49351 -1.28429,2.45799 -3.05488,4.61886 -5.61387,6.85125 l -2.16179,1.88589 -0.8513,6.32491 c -0.95417,7.0891 -0.9863,7.15314 -4.30283,8.57663 -2.30673,0.99009 -4.78384,1.61967 -7.56774,1.92349 -3.63422,0.39658 -3.93013,0.23452 -8.48004,-4.64448 -3.12195,-3.34774 -4.31695,-4.40382 -4.85381,-4.28947 -0.39171,0.0834 -2.65486,0.25883 -5.0292,0.38978 l -4.31701,0.23804 3.92455,3.44633 c 13.10682,11.50975 30.62794,20.25424 47.92137,23.91669 4.20587,0.8907 10.24481,1.79228 14.47891,2.16159 3.4379,0.29987 17.44696,-0.0987 21.38876,-0.60848 z m 32.77514,-29.91517 c -1.4699,-0.44303 -2.55614,-1.25365 -2.55614,-1.90758 0,-0.15858 0.17661,-0.19592 0.39246,-0.083 0.98962,0.51771 -0.0706,-5.97782 -1.80046,-11.03035 -1.3037,-3.80781 -2.90327,-7.00987 -5.05839,-10.12605 -1.72734,-2.49767 -5.52407,-6.12193 -7.85819,-7.50123 -0.78751,-0.46539 -1.04742,-0.80667 -0.78491,-1.03076 0.78934,-0.67377 14.19013,4.65424 20.55382,8.172 4.53391,2.50627 9.93507,7.06119 11.24516,9.48335 2.65381,4.90644 1.01909,9.52093 -4.41932,12.47477 -1.81722,0.987 -5.70962,2.0649 -7.34883,2.03504 -0.44028,-0.008 -1.50462,-0.22678 -2.3652,-0.48618 z m -79.08477,-3.95347 c 0,-0.0748 1.4015,-1.83092 3.11445,-3.90256 9.19682,-11.12276 14.2072,-19.51363 14.30186,-23.9513 0.0309,-1.4498 0.19736,-2.19727 0.46956,-2.10895 0.89291,0.28976 10.46816,6.34199 10.64266,6.72689 0.29217,0.64442 -2.40333,5.90567 -4.44885,8.68349 -4.25474,5.77805 -11.84196,11.09492 -19.57025,13.7142 -2.55264,0.86516 -4.50943,1.22886 -4.50943,0.83823 z m 147.63814,9.92321 c 17.02075,-2.63844 22.69891,-3.74522 24.64945,-4.80462 1.7959,-0.97545 1.89226,-1.11705 4.24933,-6.24343 l 2.4118,-5.24532 2.3583,-15.59819 2.35834,-15.59823 -1.20209,-20.09691 -1.20205,-20.09692 -4.47693,-18.18349 -4.47692,-18.18344 -4.98637,-7.68876 c -5.77764,-8.90884 -5.31749,-8.56001 -12.67978,-9.61174 -14.17966,-2.02559 -20.59134,-1.92006 -35.33504,0.58176 -2.69812,0.45784 -6.51855,0.93807 -8.48981,1.06722 -2.8688,0.18795 -4.08283,0.4432 -6.08304,1.279 -2.48773,1.03952 -6.79366,3.76281 -7.51873,4.75523 -0.29238,0.40018 0.35709,1.42239 2.79962,4.40661 1.74917,2.13704 3.34163,4.14477 3.53884,4.46164 0.19721,0.31687 3.01256,7.75123 6.25627,16.5208 4.87837,13.18885 6.17014,17.12159 7.47383,22.75434 1.55871,6.73466 1.58936,7.01469 2.78332,25.4118 l 1.20723,18.60211 -1.51569,10.1693 -1.51567,10.16927 -2.3134,3.69896 c -1.27233,2.03444 -2.52034,3.69909 -2.77335,3.69926 -0.9399,0 -3.30125,-2.85469 -4.45483,-5.38657 -1.70636,-3.74513 -3.35435,-9.8341 -4.47583,-16.53707 -0.93898,-5.61222 -2.18676,-16.546 -2.18676,-19.16183 l 0,-1.27221 -1.86416,-0.003 c -1.02528,-0.003 -2.57057,-0.0734 -3.43398,-0.15871 l -1.56981,-0.15513 0.0683,5.14388 c 0.19819,14.92313 4.8846,30.19705 12.06947,39.33684 4.04507,5.14566 9.95822,9.36835 15.81764,11.29562 6.82263,2.24408 13.23859,2.42013 24.51248,0.67253 z m -174.47935,-8.1032 c 4.65104,-0.57557 12.26346,-3.88047 17.65161,-7.66337 5.19212,-3.64528 10.01956,-9.83134 11.94699,-15.30929 0.83913,-2.38493 0.83983,-2.42034 0.33693,-16.876 -0.27719,-7.96734 -0.51283,-16.9388 -0.52366,-19.93663 l -0.0197,-5.45058 -2.28114,-0.64632 c -1.25463,-0.35547 -2.33752,-0.59338 -2.40643,-0.52867 -0.0689,0.0647 -0.50657,4.00417 -0.97262,8.75435 -2.09967,21.40065 -4.70061,36.05585 -7.1079,40.04982 -1.19568,1.98378 -2.1191,1.70863 -3.97611,-1.18472 -6.14229,-9.57016 -9.51799,-30.07186 -10.08914,-61.27479 l -0.24603,-13.44081 3.3575,-15.29278 c 3.12805,-14.24773 3.5141,-15.66736 5.64931,-20.77377 1.26051,-3.01454 2.41537,-5.59974 2.56636,-5.74487 0.15099,-0.14512 0.94767,1.09484 1.7704,2.75548 l 1.49586,3.01932 1.35021,-1.09457 c 1.95125,-1.58178 3.62125,-4.18468 3.62563,-5.65095 0.002,-0.96619 -0.28971,-1.48292 -1.34575,-2.37679 -2.88876,-2.44507 -9.13605,-3.56578 -19.84311,-3.55961 -11.4199,0.007 -13.77322,0.47113 -19.04676,3.75982 l -2.36745,1.47641 -0.5077,3.45872 c -1.30709,8.90463 -6.57415,31.80382 -7.50713,32.63818 -0.17204,0.15384 -0.50154,-0.21986 -0.73224,-0.83045 -0.91981,-2.43444 -1.32145,-7.16595 -1.135,-13.37105 0.16386,-5.45367 0.33503,-6.80615 1.22295,-9.66303 1.28086,-4.12113 3.4748,-8.05311 5.89915,-10.57244 1.64846,-1.71302 1.85969,-2.11907 1.92601,-3.70244 0.041,-0.97815 -0.0476,-1.88221 -0.19669,-2.009 -0.14915,-0.12679 -6.41861,0.24608 -13.93213,0.82866 -12.70536,0.98515 -13.75706,1.11513 -15.03456,1.85832 -3.2922,1.91524 -3.46739,2.13492 -4.88365,6.12285 -2.47902,6.9805 -3.6648,13.45559 -4.13657,22.58827 -0.74604,14.44192 -0.94103,33.45125 -0.44123,43.01734 0.25771,4.93288 0.62434,12.55642 0.81472,16.9412 0.31347,7.21948 0.53312,8.92911 2.32602,18.10383 1.08892,5.57233 2.18171,11.17787 2.42841,12.45677 1.76772,9.16369 5.58134,16.1337 8.88446,16.2378 1.16057,0.0366 1.23451,0.11272 1.16505,1.19981 -0.13969,2.18647 -0.28794,2.17259 22.09952,2.0718 10.90043,-0.049 20.89744,-0.22269 22.21561,-0.38582 z m 217.82132,-8.47668 c 22.76618,-6.10209 39.45896,-12.35488 52.34171,-19.60615 7.74851,-4.36136 12.40137,-8.03537 15.78775,-12.46639 1.16613,-1.52591 14.93732,-22.52058 16.89332,-25.75447 0.33499,-0.55392 1.79523,-6.2342 3.245,-12.62286 l 2.63588,-11.61582 -0.60731,-15.94466 -0.60737,-15.94465 -3.76042,-15.77857 c -4.01096,-16.82975 -5.3006,-21.21334 -8.71763,-29.63229 -7.04225,-17.3508 -16.59251,-30.4211 -27.74847,-37.97612 -1.70309,-1.15339 -4.09635,-2.54808 -5.31834,-3.09937 l -2.22176,-1.00232 -5.339,4.28812 -5.33903,4.28808 -8.34817,13.71227 c -4.59148,7.54172 -9.48857,15.49189 -10.88237,17.66702 -2.34197,3.6547 -2.93677,5.06608 -7.83999,18.60209 -2.91814,8.05604 -5.82438,15.52153 -6.45827,16.58996 l -1.15252,1.94261 3.85151,-0.218 c 5.43376,-0.3076 5.69231,-0.3747 6.75242,-1.75179 l 0.93863,-1.21929 1.28258,1.29303 1.28254,1.29305 3.32169,-1.72419 c 1.82692,-0.94827 3.54027,-1.72414 3.8074,-1.72414 0.26711,0 3.07096,1.21821 6.23073,2.70714 20.65422,9.73248 31.84329,16.97175 31.84329,20.60242 0,0.51681 -0.10869,0.93961 -0.24144,0.93961 -0.27251,0 -8.77418,-4.52995 -25.34008,-13.50194 -6.19132,-3.35319 -11.45155,-6.0967 -11.68933,-6.0967 -0.23783,0 -0.83122,0.22119 -1.31869,0.49152 -0.88251,0.48944 -0.87306,0.50339 2.19531,3.23876 7.90031,7.04303 16.52869,16.00352 19.91824,20.68497 1.7327,2.3931 3.13254,5.28403 3.13254,6.46922 0,0.97551 -1.39032,2.00138 -2.71229,2.00138 -1.77143,0 -3.99751,-2.51988 -2.78596,-3.15368 0.52581,-0.27505 -0.87913,-2.55076 -4.20535,-6.81173 -7.96914,-10.20873 -15.62534,-15.76668 -25.23867,-18.32174 -2.52753,-0.67177 -3.71058,-0.7763 -8.62019,-0.76178 -5.07498,0.015 -6.26373,0.13588 -10.98872,1.11745 -2.91398,0.60532 -6.12473,1.19568 -7.13494,1.31188 l -1.83686,0.21127 4.89199,10.43617 c 4.4389,9.46963 5.12361,11.22328 7.39278,18.93428 2.44516,8.30902 2.52753,8.73462 3.70149,19.12788 1.15321,10.2096 1.20695,11.41756 1.35867,30.56059 l 0.15797,19.93082 -2.51682,9.30105 c -1.38426,5.11558 -2.62336,9.72884 -2.75358,10.25168 -0.22739,0.9131 -0.18979,0.94194 0.95132,0.72977 0.65343,-0.12147 4.16739,-1.01942 7.80881,-1.99544 z m -275.18128,-9.56733 c -1.37239,-4.62643 -2.15243,-9.6316 -5.44884,-34.96198 -2.35854,-18.12366 -3.36536,-31.58287 -3.3482,-44.75901 l 0.0136,-10.38293 2.10767,-11.95849 c 1.15922,-6.57717 1.99201,-12.05948 1.85064,-12.18288 -0.14138,-0.12341 -4.35102,-1.65558 -9.35477,-3.40485 -10.02377,-3.50421 -10.73357,-3.62426 -15.92296,-2.69349 -5.32908,0.95585 -13.5952,4.49826 -16.45034,7.04967 -0.57481,0.51368 -8.57752,11.84609 -17.78379,25.18313 -9.20629,13.33704 -16.92461,24.39864 -17.15184,24.58134 -0.28833,0.23183 -0.35318,-0.52086 -0.21463,-2.49136 l 0.19851,-2.82353 16.20054,-22.75434 c 14.64657,-20.57174 17.11878,-24.24917 16.30188,-24.24917 -0.63252,0 -5.01743,2.09439 -7.68743,3.67182 -3.92916,2.32131 -13.44791,10.48866 -17.9823,15.42927 -3.58182,3.90272 -10.34594,12.23962 -13.81201,17.02352 -2.07716,2.86692 -2.82852,3.11651 -2.49973,0.83045 2.15888,-15.0104 15.1471,-28.69762 35.307,-37.20709 2.90582,-1.22655 9.08873,-3.49258 10.64191,-3.9003 0.0426,-0.0113 -0.34217,-2.22073 -0.85504,-4.91012 l -0.93249,-4.88982 -10.79061,-22.67095 -10.79062,-22.67098 -5.58509,-8.13841 c -3.07181,-4.47614 -5.65193,-8.20573 -5.73363,-8.28797 -0.0817,-0.0823 -2.17915,1.56204 -4.66103,3.65398 l -4.51248,3.80353 -10.71029,15.61248 c -7.20388,10.50118 -11.17785,16.64562 -12.1385,18.76818 -0.78552,1.73565 -3.99468,9.77355 -7.13145,17.86197 l -5.70322,14.70626 -1.70307,17.84742 -1.70306,17.84743 0.91391,12.67586 0.9139,12.6759 5.47007,11.075 5.47007,11.07502 4.7347,4.79726 4.7347,4.79727 20.70276,9.28295 20.70274,9.28295 16.97804,4.10635 16.97803,4.10631 14.81079,0.95684 c 8.14593,0.52627 15.27673,0.97485 15.84622,0.99688 l 1.03543,0.0401 -1.30563,-4.4014 z m 192.56442,-32.54507 c 2.02538,-0.85899 4.698,-2.25209 5.93914,-3.09582 2.64741,-1.79975 2.55103,-1.20801 1.67445,-10.28304 l -0.54548,-5.64706 -7.20932,-23.21334 -7.20926,-23.21335 -5.02432,-5.26935 c -5.21946,-5.47403 -9.33266,-8.82224 -18.279,-14.87949 -8.6397,-5.84963 -15.2398,-9.20289 -18.77836,-9.54059 -2.16369,-0.20648 -3.09463,0.26014 -3.40707,1.70772 -0.21153,0.98009 0.0426,1.15349 15.39855,10.50619 l 15.61365,9.50966 -0.0464,1.87915 c -0.0255,1.03351 -0.15247,1.96887 -0.28209,2.07859 -0.42954,0.3636 -4.17587,-2.0657 -17.64519,-11.44193 l -5.41517,-3.76961 -1.32551,0.98507 c -1.82272,1.35461 -3.39101,1.59634 -5.22017,0.80468 -2.33541,-1.01076 -5.15257,-5.07083 -3.51846,-5.07083 0.27185,0 0.70838,0.29019 0.97007,0.64486 0.26169,0.35471 1.27834,1.04298 2.25916,1.5295 1.96494,0.97467 3.42719,0.92322 4.10221,-0.14434 0.33904,-0.53621 0.0854,-0.75777 -1.8848,-1.64662 -5.24316,-2.36539 -8.97872,-2.38386 -10.35545,-0.0512 -0.86459,1.46492 -0.85776,3.987 0.0166,6.11158 0.66234,1.60946 0.72527,1.65277 5.79338,3.98617 4.90941,2.26029 5.77564,2.83748 20.70198,13.79356 8.56803,6.289 15.5782,11.55439 15.5782,11.70081 0,0.33053 -2.1209,1.2799 -2.8593,1.2799 -0.29893,0 -6.43944,-4.45617 -13.64548,-9.9026 l -13.10194,-9.9026 -1.42273,1.26591 c -1.21865,1.08431 -1.66534,1.26591 -3.11409,1.26591 -1.46225,0 -1.89328,-0.17968 -3.18209,-1.32643 -1.60168,-1.42512 -2.26799,-3.20414 -1.57691,-4.21022 0.37358,-0.54381 0.41941,-0.51651 0.43007,0.25632 0.014,1.01364 1.49996,2.48673 2.9933,2.96729 1.29749,0.41752 2.74478,-0.27564 3.33942,-1.59945 0.35553,-0.79149 0.25753,-0.9882 -0.90056,-1.80828 -1.91973,-1.35945 -5.75816,-2.91592 -7.19093,-2.91592 -3.06712,0 -5.88117,3.25962 -6.33056,7.33292 l -0.23891,2.16552 1.95115,1.97743 c 1.07314,1.08759 4.99192,4.81758 8.70839,8.28887 7.39972,6.91153 11.28617,11.46623 13.03294,15.27388 1.31073,2.85708 1.48506,4.67627 0.77656,8.1037 -0.39996,1.93479 -0.4095,3.01181 -0.0453,5.12006 0.62416,3.6131 1.63803,6.23507 2.79267,7.2223 0.52741,0.45094 2.61909,3.13685 4.64811,5.96869 2.99757,4.18354 4.35715,5.71573 7.25228,8.17283 3.63226,3.08271 11.51022,8.28451 12.9636,8.55983 0.44186,0.0837 2.67831,0.12579 4.96993,0.0936 4.12348,-0.0581 4.20468,-0.0748 7.84909,-1.62038 z m -72.74617,-0.9483 8.34148,-1.08793 -6.54084,-2.26809 c -3.59746,-1.24744 -6.57547,-2.22997 -6.61781,-2.18339 -0.53875,0.59244 -5.22401,6.18543 -5.471,6.53096 -0.26621,0.37244 -0.10279,0.42951 0.80641,0.28172 0.62714,-0.1019 4.89394,-0.67492 9.48176,-1.27327 z m 29.98334,-5.3307 c 2.36007,-0.42842 4.25649,-1.78209 4.25649,-3.03829 0,-1.12317 -2.11341,-3.47666 -3.69543,-4.11518 -1.68842,-0.6815 -3.59375,-0.39786 -5.4249,0.80762 -1.98464,1.30654 -3.17398,2.99903 -3.25607,4.63373 -0.0696,1.38432 -0.0506,1.40532 1.54163,1.70836 2.28217,0.43433 4.20024,0.43543 6.57828,0.003 z m -15.52701,-0.99674 c 2.51801,-0.53664 5.26076,-2.73793 6.63062,-5.3216 l 1.10048,-2.07553 -0.27119,-5.66443 c -0.43683,-9.12494 -1.50907,-13.46777 -3.45422,-13.99032 -0.88456,-0.23763 -2.75753,1.0786 -3.69381,2.59579 -0.85806,1.39048 -1.14489,1.1066 -1.00629,-0.99593 0.16154,-2.45034 -0.80917,-6.3691 -2.15815,-8.7125 -0.58093,-1.00917 -1.99493,-2.6705 -3.14223,-3.69186 -1.14729,-1.02135 -2.08599,-2.02752 -2.08599,-2.2359 0,-0.60434 1.79774,-0.82118 3.30872,-0.39909 2.53563,0.70832 5.47782,4.62287 6.31563,8.40288 0.21343,0.96296 0.60765,1.38525 1.89616,2.03135 2.32549,1.16605 5.11835,3.71722 6.47758,5.91706 1.92632,3.11768 2.5442,6.24991 2.32262,11.7741 l -0.19124,4.76805 1.6788,0 c 1.25087,0 1.99944,-0.22837 2.93674,-0.89596 l 1.25798,-0.89592 -0.20015,-2.67502 c -0.20872,-2.78898 -2.31353,-8.33078 -3.87424,-10.20033 -0.94436,-1.13127 -0.92843,-1.39752 0.0704,-1.17642 2.26318,0.50093 2.00663,-6.3825 -0.38578,-10.35179 -1.0294,-1.70791 -3.82855,-4.53135 -13.68942,-13.80818 -9.83923,-9.25647 -10.41467,-10.10712 -10.34336,-15.29042 0.0399,-2.90363 0.79251,-4.76437 2.86796,-7.0911 1.81335,-2.03291 1.85108,-1.96136 -1.62576,-3.08386 -3.85266,-1.24384 -7.37897,-1.70498 -13.14723,-1.71929 -6.01757,-0.015 -10.46809,0.3937 -17.66046,1.62153 -8.41839,1.43715 -21.63459,4.70108 -22.7054,5.60744 -0.86943,0.73591 -3.67097,8.49123 -4.74017,13.12189 -1.99502,8.64034 -2.95972,18.12934 -2.96576,29.17191 l -0.003,7.08192 4.41513,1.76796 c 5.074,2.03181 11.4852,3.8516 16.5812,4.70644 5.21616,0.87503 14.242,0.79337 18.44536,-0.16683 5.5035,-1.25723 11.77053,-4.19713 14.88858,-6.98429 1.27609,-1.14067 1.79074,-1.28978 1.79074,-0.51886 0,1.48893 4.29486,6.65227 6.48737,7.79922 1.93584,1.01265 2.44512,0.85983 3.06465,-0.9197 l 0.54931,-1.57786 0.44151,1.32872 c 0.72301,2.17591 0.57755,4.06924 -0.34474,4.48703 -1.03803,0.4702 -3.16939,-0.0256 -4.8923,-1.13775 l -1.30449,-0.84218 -2.44313,1.65303 c -2.22368,1.50454 -3.41513,2.05208 -3.05497,1.4039 0.0762,-0.13703 0.81659,-1.37444 1.64547,-2.74979 l 1.50705,-2.50069 -1.09633,-1.53627 -1.09633,-1.53631 -4.44099,1.87112 -4.44099,1.8711 0,1.40599 c 0,1.87369 1.31584,4.76015 2.6502,5.81352 1.54076,1.21631 2.57632,1.59662 4.34745,1.59662 0.95911,0 2.66069,0.44207 4.44092,1.15373 5.0615,2.02338 8.74836,2.55925 12.34039,1.79368 z m 51.46051,-73.89599 6.75614,-3.7156 4.42881,-0.69784 c 7.72081,-1.21658 13.23651,-1.71863 21.10813,-1.92137 8.57517,-0.22086 13.04833,0.11435 18.12042,1.35779 1.79566,0.44021 3.29492,0.77485 3.33166,0.74358 0.0365,-0.0312 -0.7131,-1.77523 -1.66621,-3.87551 -0.95311,-2.10027 -1.73296,-3.94806 -1.73296,-4.10618 0,-0.26737 1.98657,-0.0851 3.67706,0.3374 0.71152,0.17781 0.7249,-0.23196 0.44328,-13.58206 l -0.29041,-13.76542 2.88622,-1.89818 c 1.58745,-1.044 2.9418,-1.7572 3.00966,-1.58486 0.0678,0.17229 -0.22672,1.48753 -0.65457,2.92272 -1.49036,4.99864 -2.10662,11.24902 -1.89458,19.21444 0.1376,5.16763 0.3905,8.04241 0.86246,9.80278 1.31229,4.89483 3.46828,8.21707 6.54892,10.09136 l 1.46284,0.89002 0.2009,-1.08905 c 0.11055,-0.59896 0.30756,-3.70495 0.4379,-6.90218 l 0.23696,-5.81315 3.09595,-8.80278 c 3.84799,-10.94083 4.09794,-11.54862 9.01755,-21.92391 2.20905,-4.65883 6.11472,-13.08024 8.67926,-18.71421 2.56453,-5.63401 5.00587,-10.61284 5.42521,-11.06406 0.41933,-0.45124 6.88409,-6.27759 14.36607,-12.94747 7.48195,-6.66989 13.54145,-12.16809 13.46547,-12.21825 -0.0759,-0.0501 -8.45998,-2.51631 -18.63119,-5.48028 l -18.49305,-5.3891 -24.08826,11.10263 c -13.24852,6.10644 -25.77368,11.83346 -27.83367,12.72673 l -3.74543,1.62409 -0.72569,2.32527 c -5.12216,16.41296 -24.87576,28.7206 -56.77844,35.37624 -5.95016,1.24132 -17.07793,2.99059 -19.02451,2.99059 -0.79386,0 -1.24227,0.50279 -2.88846,3.23875 -1.07177,1.78132 -2.10141,3.42854 -2.28807,3.66047 -1.16689,1.4499 -19.00747,6.8657 -52.43565,15.91765 l -1.91785,0.51933 2.6107,1.16652 c 4.95727,2.21501 7.30805,4.58475 7.30805,7.367 0,1.88987 -1.13166,3.60014 -3.69354,5.58195 l -2.1691,1.67798 0.67471,1.37357 c 0.54191,1.10327 0.82918,1.33828 1.45962,1.19426 9.65235,-2.20519 16.6633,-3.00325 26.09823,-2.97076 8.76146,0.0303 11.86556,0.47016 16.14152,2.28799 1.08673,0.46202 2.04966,0.84002 2.13986,0.84002 0.0902,0 0.16497,-0.71004 0.16617,-1.57787 0.001,-0.86781 0.1846,-2.13375 0.40754,-2.81319 0.43671,-1.33095 2.12079,-3.24554 2.8629,-3.25477 0.25063,-0.003 0.87426,-0.82408 1.38584,-1.82437 1.00661,-1.96817 3.2633,-3.93122 5.37984,-4.67976 1.76711,-0.62493 6.20165,-0.58992 8.82572,0.0697 6.82459,1.71541 16.42466,7.82397 26.11051,16.61423 2.50834,2.2764 4.33976,3.68385 4.61193,3.5443 0.24831,-0.12732 3.49175,-1.90352 7.20763,-3.94714 z m 78.70021,1.83776 c 3.20094,-0.75243 2.95611,-0.26046 9.69154,-19.4758 l 6.18638,-17.64907 8.87873,-13.78409 c 4.88332,-7.58125 10.37791,-16.08458 12.21025,-18.89628 l 3.33143,-5.11219 5.40974,-4.08602 c 2.97536,-2.24729 6.93967,-5.35949 8.80951,-6.91603 3.64877,-3.03733 5.76724,-3.76486 2.58942,-0.88928 -2.45276,2.21947 -2.93074,3.30752 -1.94492,4.42714 0.41101,0.46677 1.28398,1.11473 1.94001,1.43993 1.14224,0.56624 6.3839,1.67366 6.69108,1.41366 0.33382,-0.28255 -1.2161,-12.66454 -1.63045,-13.02555 -0.24674,-0.21496 -4.31469,-2.06942 -9.03988,-4.121 -6.00243,-2.60616 -8.75398,-3.63947 -9.13128,-3.42924 -0.29705,0.1655 -6.17139,6.10409 -13.05406,13.19683 l -12.51397,12.89591 -4.71357,9.52627 c -2.59247,5.23944 -7.45534,15.43078 -10.80639,22.64739 -6.05145,13.0321 -6.11958,13.20836 -10.0413,25.97724 -3.68841,12.00928 -4.38568,14.85251 -3.65414,14.90008 0.16188,0.0109 1.53056,0.30089 3.04152,0.64523 3.13218,0.71379 5.62273,0.81497 7.75035,0.31487 z m -263.82695,-6.63782 c 1.31739,-1.58965 7.71774,-6.03442 9.48727,-6.58847 0.74812,-0.23425 0.66119,-0.34012 -0.92555,-1.12722 -1.50304,-0.74555 -2.00802,-1.30703 -3.56303,-3.96175 -0.99649,-1.70117 -2.38684,-4.51314 -3.08968,-6.24878 -1.14317,-2.82303 -1.28011,-3.55844 -1.2989,-6.97578 -0.0235,-4.27132 0.51311,-5.7655 2.89533,-8.06199 1.63896,-1.57999 6.29063,-3.56433 8.35542,-3.56433 l 1.55159,0 -0.24875,1.24617 c -0.20848,1.04448 0.35132,2.64386 3.45888,9.88237 l 3.70761,8.6362 1.90289,0.72903 c 6.46583,2.4772 14.16835,1.26671 22.05437,-3.46604 l 2.49104,-1.49497 -1.94317,-1.70409 c -5.17333,-4.53682 -8.25199,-8.54341 -9.34853,-12.1662 -0.54625,-1.8048 -0.57236,-2.41937 -0.16885,-3.97481 0.39991,-1.54155 0.81935,-2.12273 2.58653,-3.58386 2.37586,-1.96442 2.50327,-1.98491 7.03158,-1.13154 l 3.13964,0.59165 0.33465,1.47411 c 0.18406,0.81075 0.67821,2.5952 1.0981,3.96544 0.75625,2.46787 0.80484,2.52659 5.15331,6.22838 2.41442,2.05537 4.61843,3.73703 4.89778,3.73703 0.27936,0 8.73793,-2.19807 18.79682,-4.88461 l 18.2889,-4.88459 -4.46583,-0.75623 c -30.05554,-5.08944 -54.29131,-18.402 -64.52396,-35.44262 -1.10993,-1.84841 -2.10974,-3.65969 -2.22178,-4.02509 -0.15814,-0.51571 -3.60077,-1.87988 -15.38659,-6.09704 l -15.18287,-5.43268 -2.04345,0.742 c -1.1239,0.40808 -8.53367,3.48845 -16.46616,6.8453 -7.95018,3.36433 -14.42155,5.9166 -14.42013,5.68723 0.001,-0.22884 6.70101,-3.77064 14.88801,-7.87062 l 14.88545,-7.45456 -11.40288,-5.79059 -11.40287,-5.79065 -7.90025,0.1748 c -8.40458,0.18595 -12.80867,0.68054 -18.50789,2.07846 -6.43511,1.57841 -11.64768,4.27316 -13.30528,6.87842 -0.73869,1.16101 -0.7382,1.16758 0.18416,2.45169 0.50867,0.70817 4.30457,5.32356 8.43533,10.25644 4.13075,4.93287 8.8504,10.57795 10.48811,12.54458 l 2.97763,3.57573 9.06747,23.02461 9.06746,23.02462 0.81976,5.62116 c 0.45088,3.09163 1.04348,5.92011 1.31691,6.28552 0.27342,0.36539 1.04132,0.93113 1.70644,1.25716 l 1.2093,0.59281 1.05802,-1.35324 1.05802,-1.35323 0.35042,-16.00418 c 0.19275,-8.80228 0.4296,-16.07119 0.52636,-16.15311 0.0968,-0.0818 0.25782,-0.0795 0.35792,0.005 0.10012,0.0848 1.27966,5.72934 2.62128,12.54365 l 2.43931,12.38964 -1.0674,5.65742 c -0.58706,3.11157 -1.00668,5.70879 -0.93248,5.77158 0.13704,0.11599 17.19752,5.0588 17.55739,5.08677 0.10788,0.009 0.81435,-0.73063 1.56982,-1.64227 z m -37.20204,-2.84015 c 2.65008,-0.53829 6.41673,-2.20315 7.07606,-3.12757 0.24489,-0.34335 -2.27215,-8.01236 -8.09537,-24.66533 l -8.45076,-24.16705 -11.45512,-16.69113 c -6.30031,-9.1801 -12.05514,-17.46478 -12.78852,-18.41033 l -1.33341,-1.71924 -2.6303,-0.24296 c -3.56426,-0.32925 -9.51031,0.32956 -12.12739,1.34371 -3.15219,1.22146 -4.60391,2.32234 -6.01272,4.55957 -1.11029,1.76322 -1.31056,2.45369 -1.4672,5.05881 -0.17739,2.95006 0.5547,6.752 1.85593,9.63831 l 0.43928,0.97439 3.23893,-2.72727 3.23894,-2.72723 -0.49464,-3.39591 c -0.61054,-4.19152 -0.62092,-4.44452 -0.16593,-4.04367 0.19702,0.17357 4.36237,6.14347 9.25634,13.26651 l 8.89814,12.95092 10.80611,22.71563 c 10.7745,22.64912 10.80827,22.72787 11.54527,26.91069 1.09653,6.22327 0.69599,5.6282 3.57289,5.30787 1.35375,-0.15074 3.64582,-0.51463 5.09347,-0.80872 z m 121.47127,-2.69986 c 0.86734,-0.96003 0.9185,-1.18382 0.51006,-2.23132 -0.76693,-1.96694 -4.00704,-3.73999 -9.72235,-5.32024 -1.84717,-0.51072 -2.06039,-0.66781 -2.06039,-1.51792 0,-2.36225 -0.37434,-2.19357 14.67522,-6.61226 7.68568,-2.25659 13.97396,-4.1655 13.97396,-4.24197 0,-0.0765 -0.72225,-1.0393 -1.60498,-2.13955 -0.88274,-1.10024 -1.51008,-2.0808 -1.39409,-2.17896 0.116,-0.0982 1.92373,0.60304 4.01718,1.55825 3.53427,1.61265 3.78877,1.68064 3.56119,0.9515 -0.74154,-2.37599 -1.14501,-4.3011 -0.93811,-4.47619 0.1293,-0.10946 1.82083,0.51819 3.75896,1.39476 l 3.52386,1.59373 6.21352,-1.87393 c 3.41744,-1.03065 6.73904,-1.98099 7.38134,-2.1119 2.02417,-0.41251 4.66625,-3.11233 7.03178,-7.18553 3.24256,-5.58338 7.3142,-16.297 7.92219,-20.84552 l 0.26652,-1.99407 -1.12995,0.16387 c -0.6215,0.0901 -3.60247,0.40021 -6.62436,0.6891 -5.45383,0.52136 -6.47551,0.83507 -6.47551,1.98836 0,0.33069 -5.61544,11.84346 -7.06564,14.48599 -0.26677,0.48608 -1.89612,1.73893 -3.62078,2.78407 -2.45086,1.48521 -3.20909,1.80005 -3.47159,1.44143 -0.24543,-0.33527 -0.5244,-0.0763 -1.03612,0.96186 -0.42004,0.85214 -1.01438,1.48127 -1.48518,1.57205 -0.43171,0.0832 -2.37435,0.38699 -4.317,0.67498 -3.98586,0.59093 -43.10516,12.32655 -42.7429,12.8227 0.11437,0.15659 -0.11158,0.28488 -0.50206,0.28504 -0.44724,2.4e-4 -1.13924,0.64557 -1.87008,1.74395 l -1.16014,1.74362 -0.29383,-0.99655 c -0.16162,-0.5481 -0.39351,-1.51971 -0.51532,-2.15917 -0.1845,-0.9685 -0.55724,-1.32901 -2.23251,-2.15917 -2.26355,-1.12167 -4.56569,-3.3902 -6.21891,-6.1281 -0.69609,-1.15279 -2.44521,-2.95919 -4.66534,-4.81807 -3.31118,-2.77241 -3.62365,-2.95239 -4.61342,-2.65744 -2.3556,0.702 -1.83972,3.68802 1.62503,9.40589 1.1776,1.94334 3.31037,5.02817 4.73948,6.85517 1.42913,1.82699 3.02194,4.25605 3.53958,5.39793 l 0.94117,2.07612 -2.37622,0 c -1.8815,0 -4.12262,0.48412 -10.76427,2.32526 -7.30845,2.02601 -8.76014,2.32527 -11.27925,2.32527 -7.09762,0 -11.11599,-3.97786 -13.90037,-13.76021 -2.36396,-8.30534 -2.02336,-7.59623 -3.54819,-7.38679 -0.72993,0.10028 -1.9499,0.50807 -2.71106,0.90622 -3.67437,1.92213 -4.6356,6.01838 -2.73481,11.65431 1.00624,2.98358 3.89586,8.49548 6.37277,12.15598 l 1.17909,1.74252 1.48708,-3.18017 c 0.81788,-1.74909 1.6172,-3.05642 1.77625,-2.90515 0.15905,0.15124 0.49852,1.39028 0.75439,2.75341 0.25586,1.36311 0.53014,2.53335 0.60949,2.60051 0.0794,0.0672 8.41609,-0.50664 18.52608,-1.27511 14.44979,-1.09835 18.48326,-1.50431 18.8561,-1.89774 0.26087,-0.27532 1.32049,-2.46106 2.35473,-4.85728 l 1.88043,-4.35674 0.11368,2.53102 c 0.0796,1.77268 -0.12452,3.25859 -0.68141,4.95955 -0.43731,1.33572 -0.72805,2.48537 -0.64607,2.55472 0.25825,0.21862 8.11438,0.81106 8.61191,0.64945 0.26099,-0.0847 0.8923,-1.40465 1.40291,-2.93308 1.42006,-4.25074 1.5129,-4.20527 2.36657,1.15947 0.19933,1.25266 0.47068,2.37376 0.603,2.49136 0.13231,0.11759 2.39469,1.35064 5.02748,2.74008 l 4.78691,2.52627 1.52412,-0.69927 c 0.83827,-0.3846 1.95794,-1.17948 2.48816,-1.76637 z m 26.00184,-34.22706 c -0.005,-0.31973 -1.04679,-5.28998 -2.31561,-11.04501 -1.26883,-5.75502 -2.23331,-10.52845 -2.1433,-10.60761 0.43556,-0.38311 1.0921,1.10158 3.91959,8.86367 1.68043,4.61315 3.15343,8.38244 3.27335,8.37622 0.26638,-0.014 9.95775,-17.60798 9.77027,-17.73736 -0.0734,-0.0506 -7.2858,-0.86716 -16.02773,-1.8146 -9.59755,-1.0402 -24.29022,-2.95641 -37.08696,-4.83692 l -21.19254,-3.11428 -9.02646,-2.98541 c -4.96454,-1.64197 -9.09308,-2.93116 -9.17453,-2.86486 -0.31956,0.2602 4.07183,6.5127 6.48777,9.23734 14.82314,16.71737 38.77969,26.86668 67.83422,28.73839 2.37435,0.15297 4.62605,0.29916 5.0038,0.32494 0.41631,0.0282 0.68338,-0.18214 0.67813,-0.53451 z m 37.39179,-3.43997 c 16.73961,-2.2289 32.66761,-7.4312 43.14658,-14.09228 4.27116,-2.71502 9.66729,-7.48618 12.10593,-10.70395 2.01,-2.65216 3.77856,-5.93278 4.8242,-8.94877 l 0.59799,-1.72472 -2.11125,1.14313 c -7.29918,3.95212 -30.2168,9.4393 -58.98184,14.12212 l -2.47689,0.40323 -1.73937,2.93137 -1.7394,2.93139 -0.5884,6.57155 c -0.32366,3.61439 -0.58973,6.95679 -0.59131,7.42755 -0.003,0.99339 -0.385,0.99645 7.55376,-0.0607 z m 2.05855,-23.5947 c 0.64755,-0.2988 7.71173,-1.83709 15.69819,-3.41841 16.86031,-3.33834 11.25328,-1.45438 51.01908,-17.14245 14.46195,-5.70544 29.1308,-11.44478 32.59743,-12.75414 17.86328,-6.74698 36.24031,-18.06935 42.99736,-26.49142 2.79146,-3.47925 3.33092,-4.94351 6.40369,-17.38051 2.4276,-9.82579 3.30364,-14.2689 4.91219,-24.91352 3.07375,-20.3408 4.7009,-33.75145 5.35368,-44.12418 l 0.60268,-9.57739 3.99692,-4.54147 c 2.19826,-2.49784 4.41861,-5.41571 4.93401,-6.4842 l 0.93715,-1.94273 -7.19809,-6.09925 c -3.95892,-3.35462 -7.26842,-6.03974 -7.3544,-5.96696 -0.086,0.0728 2.17876,3.39325 5.03272,7.37885 2.85396,3.98557 5.27699,7.37301 5.38448,7.52758 0.10753,0.15459 -0.0839,0.22933 -0.42534,0.16608 -0.34145,-0.0632 -4.8635,-4.82362 -10.04896,-10.57864 l -9.42813,-10.46368 2.17125,-1.827 2.17129,-1.82699 6.63559,5.81316 c 3.64959,3.19724 6.64383,5.69948 6.65383,5.56057 0.0104,-0.13896 -2.73623,-3.41299 -6.10278,-7.27562 l -6.12105,-7.02303 2.77623,0.21841 2.77622,0.21838 0.79386,-1.31709 c 0.43661,-0.72442 0.79385,-1.45987 0.79385,-1.63436 0,-0.1745 -1.64194,-1.31198 -3.64872,-2.52773 l -3.64877,-2.21043 -2.29531,-4.13604 c -1.26244,-2.27481 -2.18938,-4.22571 -2.05988,-4.33532 0.12947,-0.10962 2.93678,0.63244 6.23842,1.64897 l 6.00294,1.84829 6.18117,-0.19732 6.18116,-0.19731 -1.6e-4,-7.34095 c -1.2e-4,-5.54287 -0.24041,-9.23751 -0.98114,-15.08369 -0.53954,-4.25848 -0.98097,-7.95362 -0.98097,-8.2114 0,-0.2578 -3.66455,-3.0828 -8.14343,-6.2778 -4.47889,-3.19498 -8.98247,-6.42902 -10.00795,-7.18676 l -1.86455,-1.37769 -2.29025,4.10403 c -5.70036,10.21481 -11.71508,18.13489 -17.51451,23.06275 -4.87675,4.14389 -7.31169,5.28593 -11.27588,5.28864 -1.44564,0 -2.82712,-0.16596 -3.06998,-0.37104 -0.32699,-0.27614 0.1177,-3.59347 1.71433,-12.78894 1.87463,-10.79673 2.19025,-13.35352 2.41999,-19.6038 0.14528,-3.95324 0.13642,-9.65652 -0.0197,-12.67394 l -0.28387,-5.48619 -12.40964,-5.84063 c -6.8253,-3.21235 -13.36272,-6.30667 -14.52769,-6.87627 -1.50479,-0.73577 -2.0481,-0.88137 -1.87649,-0.50282 0.75569,1.66679 6.15307,16.08538 6.15307,16.43725 0,0.23164 -3.04643,1.67443 -6.76984,3.2062 -3.72341,1.53182 -6.63618,2.79145 -6.47275,2.79922 0.16337,0.008 3.83726,-0.81782 8.16414,-1.83466 4.3269,-1.01687 8.05188,-1.7967 8.27774,-1.73298 0.22585,0.0637 -3.40552,2.26453 -8.06973,4.89069 -4.66425,2.62614 -8.4167,4.82877 -8.33876,4.89471 0.0779,0.066 4.00905,-0.63716 8.7358,-1.56244 4.72681,-0.92529 9.25644,-1.80903 10.06587,-1.96383 1.03683,-0.19827 1.4712,-0.16917 1.46998,0.0984 0,0.34597 -22.80659,8.52425 -23.75818,8.52013 -0.7249,-0.003 -3.8964,-2.97029 -3.49766,-3.27228 0.20591,-0.15602 2.10194,-1.44737 4.21338,-2.8697 2.11141,-1.42233 3.78872,-2.62855 3.72738,-2.68047 -0.0614,-0.052 -1.70058,0.18656 -3.64272,0.52993 -1.94215,0.34341 -3.9127,0.63028 -4.37905,0.63748 -0.71572,0.011 -1.59014,-1.21667 -5.60974,-7.87618 l -4.76181,-7.88929 -3.80921,-2.36609 -3.80916,-2.36605 -8.75496,0.2951 c -7.94104,0.26772 -8.97645,0.37131 -11.13691,1.11438 -3.09627,1.06489 -8.88376,4.37098 -14.05544,8.02915 -4.32654,3.06035 -17.27724,13.8117 -21.71487,18.02714 -1.43046,1.35885 -2.70704,2.38077 -2.83682,2.27092 -0.3516,-0.29757 1.58948,-6.06549 3.12889,-9.29751 6.81387,-14.30597 18.51863,-26.21119 34.50656,-35.09757 2.33946,-1.30029 5.65079,-2.97946 7.35852,-3.73148 1.70776,-0.752 3.10499,-1.46931 3.10499,-1.594 0,-0.1247 -2.03543,-0.64692 -4.52316,-1.16048 l -4.52315,-0.93375 -2.16313,0.89576 c -9.43516,3.90723 -25.11478,18.57113 -40.31879,37.70689 -3.19109,4.01632 -14.92915,17.21716 -18.58378,20.89969 -0.5415,0.5456 -0.36495,-1.16828 0.83848,-8.13968 2.27987,-13.20709 2.43761,-13.86621 6.06761,-25.35294 3.48842,-11.03878 3.50361,-11.10403 2.83903,-12.20048 l -0.66816,-1.10235 -6.15361,5.05858 c -5.73006,4.71044 -6.62114,5.61873 -12.94703,13.19702 -3.73641,4.47614 -13.22734,16.65885 -21.09097,27.0727 -7.86361,10.41386 -14.35638,18.9988 -14.42834,19.07765 -0.072,0.0789 -0.76195,-0.36955 -1.53329,-0.99653 l -1.40243,-1.13992 0.25823,-2.32526 c 0.14203,-1.2789 0.34672,-3.1474 0.45486,-4.15225 0.18033,-1.67545 5.35607,-37.72828 6.58091,-45.84089 0.28963,-1.91834 0.64117,-6.85122 0.78118,-10.96195 0.14001,-4.11073 0.36404,-8.63255 0.49784,-10.04846 l 0.24327,-2.5744 -6.63004,0 c -16.3785,0.003 -29.70829,2.20638 -34.88235,5.76648 l -1.17295,0.80707 4.50881,3.94594 c 7.84958,6.86966 12.72097,12.53216 16.52576,19.20952 3.94326,6.92042 5.51343,13.32173 4.684,19.09576 -0.43963,3.06044 -0.70718,3.99374 -1.14286,3.9867 -0.13879,-0.003 -1.01958,-1.1251 -1.9573,-2.49525 -0.93771,-1.37014 -3.02994,-4.09635 -4.64941,-6.05821 -11.7167,-14.1928 -22.37387,-21.00539 -32.86128,-21.00539 -6.45029,0 -11.10833,1.89297 -17.14051,6.96569 -4.69114,3.94498 -7.81757,7.72589 -11.20152,13.54645 -1.19495,2.05537 -2.35468,3.73703 -2.57719,3.73703 -0.22251,0 -4.07107,-0.97162 -8.55236,-2.15917 -4.48129,-1.18754 -8.3618,-2.15917 -8.62334,-2.15917 -0.26154,0 -0.88369,0.27176 -1.38254,0.60387 l -0.90701,0.60386 8.19923,3.79753 c 4.50957,2.08865 8.2012,3.92919 8.20362,4.0901 0.005,0.32819 0.26971,0.36131 -10.15944,-1.27189 -4.18709,-0.65569 -7.66484,-1.14821 -7.72832,-1.09447 -0.0635,0.0537 3.05128,1.51396 6.92172,3.24491 6.48471,2.90014 7.82929,3.64548 6.57637,3.64548 -0.76739,0 -23.86266,-7.71419 -23.86266,-7.9705 0,-0.12949 1.19208,-0.50309 2.64907,-0.83025 3.79395,-0.85191 3.84748,-0.89091 4.42638,-3.22657 0.28494,-1.14968 1.72101,-5.14437 3.19126,-8.87706 1.47024,-3.7327 2.61222,-6.83832 2.53773,-6.90138 -0.56127,-0.47504 -13.45424,5.42079 -18.70521,8.55375 -0.85425,0.50967 -2.26992,3.88867 -10.00237,23.87444 -4.95401,12.80439 -9.10266,23.28073 -9.21924,23.28073 -0.11658,0 -2.50309,-6.49792 -5.30335,-14.43983 -4.70758,-13.35121 -5.13874,-14.39673 -5.71939,-13.86852 -0.34539,0.3142 -4.95061,4.45779 -10.23381,9.20797 l -9.60582,8.63669 0.76069,14.28375 c 0.41838,7.85607 0.82402,14.34162 0.90143,14.41235 0.0774,0.0708 4.1447,-1.09134 9.03844,-2.58244 4.89374,-1.49109 8.97908,-2.6422 9.07853,-2.55798 0.0994,0.0842 -1.5593,2.8049 -3.6861,6.04604 -2.1268,3.24115 -3.93403,6.03694 -4.01605,6.21291 -0.0926,0.19871 1.35737,0.25853 3.82643,0.15788 2.18657,-0.0891 3.97557,-0.0512 3.97557,0.0841 0,0.13536 -1.05963,2.14658 -2.35473,4.46938 -1.29511,2.32281 -2.35473,4.31646 -2.35473,4.43033 0,0.1139 1.67774,-1.20709 3.72832,-2.93552 2.05057,-1.72843 3.72832,-2.98981 3.72832,-2.80314 0,0.18669 -0.79287,2.34036 -1.76194,4.78586 -0.96906,2.44552 -1.70614,4.49364 -1.63794,4.55133 0.0682,0.0577 1.96486,-1.30386 4.21478,-3.02579 2.24993,-1.72192 4.14038,-3.015 4.20101,-2.87352 0.0867,0.20227 -15.66789,24.03624 -16.24985,24.5833 -0.081,0.0761 -0.27496,0.0303 -0.43106,-0.10179 -0.15609,-0.13216 1.07438,-3.59513 2.73439,-7.69553 1.66,-4.1004 2.93971,-7.45529 2.84377,-7.45529 -0.096,0 -2.49509,1.80111 -5.33146,4.00247 -2.83637,2.20139 -5.22697,3.94331 -5.31243,3.87097 -0.0854,-0.0723 1.18148,-2.50873 2.81543,-5.41424 l 2.97081,-5.28273 -3.04996,2.49135 c -1.67747,1.37025 -3.15874,2.6088 -3.29171,2.75237 -0.13296,0.14357 -0.73066,2.48973 -1.32822,5.21374 l -1.08645,4.95271 2.75445,3.58905 c 2.63001,3.4269 3.02911,4.2343 8.83434,17.8728 l 6.0799,14.28375 5.15789,27.57097 c 2.83686,15.16403 5.57918,29.51422 6.09406,31.88932 0.51488,2.37509 1.0409,4.86843 1.16893,5.54077 0.12803,0.67229 0.87829,2.31449 1.66724,3.64932 2.94777,4.98733 11.61056,11.06161 22.67624,15.90048 2.90582,1.2707 8.0709,4.08678 13.48646,7.35305 7.73171,4.66325 9.15725,5.39531 11.96986,6.14686 3.86576,1.03299 21.3348,6.92364 32.85968,11.08051 7.4605,2.69086 9.8619,3.65641 14.28809,5.74482 0.64756,0.30555 11.30719,2.49897 23.68807,4.87429 25.85086,4.95955 27.53931,5.15733 57.74625,6.76372 1.18718,0.0632 7.45664,0.0994 13.93215,0.0806 10.10589,-0.0292 11.94038,-0.11106 12.95099,-0.57737 z m -37.08695,-34.18622 c -2.05058,-0.13562 -7.13655,-0.41628 -11.30217,-0.62366 -10.48797,-0.52212 -16.39381,-1.44053 -23.74921,-3.69328 -9.34456,-2.86197 -18.35671,-8.13865 -24.40455,-14.28907 -1.59034,-1.61732 -3.35974,-3.61682 -3.93199,-4.44328 -1.20133,-1.73511 -1.09183,-2.29554 1.21022,-6.19387 1.13569,-1.92319 3.57309,-4.29041 4.41762,-4.29041 0.16275,0 8.14796,0.8834 17.74492,1.96312 9.59697,1.07972 21.33432,2.22671 26.08301,2.54885 8.14754,0.55276 9.64011,0.55558 26.49069,0.0497 l 17.85668,-0.53607 12.75477,-2.32214 c 7.01514,-1.2772 15.48505,-2.72741 18.82205,-3.22268 l 6.06723,-0.90047 1.49722,1.45896 c 4.50137,4.38652 2.80106,10.70308 -4.60527,17.10833 -1.29509,1.12004 -3.04019,2.87999 -3.87796,3.91099 -6.24317,7.68297 -19.32682,12.1966 -39.07614,13.48064 -5.82778,0.37888 -16.22408,0.37623 -21.99712,-0.005 z m 19.06399,-2.66171 c 13.00798,-1.07139 25.42745,-4.65166 35.2094,-10.15007 l 3.45054,-1.93957 -3.25431,-0.93201 c -27.69673,-7.9321 -63.79297,-7.63416 -98.17829,0.81043 l -4.267,1.0479 1.46754,0.63725 c 0.80713,0.35048 3.9196,1.4464 6.91657,2.43541 13.06533,4.31147 27.92371,7.26479 41.3576,8.2204 3.75196,0.26691 13.35694,0.19485 17.29795,-0.12974 z M 300.43828,593.8247 c 9.10876,-2.27219 21.38493,-4.35196 31.77343,-5.38298 23.64577,-2.34673 47.90627,-0.60673 66.61395,4.77768 l 3.42872,0.98688 1.67319,-1.17864 c 0.92022,-0.64826 1.90595,-1.72187 2.19048,-2.38576 0.6948,-1.62117 0.42279,-5.1847 -0.52318,-6.85417 -0.8984,-1.58551 -3.96838,-4.21488 -5.58149,-4.78041 -1.19353,-0.41846 -1.14625,-0.42476 -34.83548,4.64222 -4.18459,0.62938 -8.34399,1.05759 -10.20382,1.05048 -5.12322,-0.0196 -32.65793,-1.99361 -36.6945,-2.63073 -2.71605,-0.42871 -5.75284,-0.59096 -11.18495,-0.59766 -6.75921,-0.009 -7.69864,0.0616 -10.04397,0.74793 -1.42302,0.4164 -3.3086,1.20605 -4.19018,1.75482 -2.83292,1.76338 -4.26811,5.34079 -3.28907,8.19844 0.36303,1.05962 3.93038,3.09824 5.16089,2.94926 0.53963,-0.0653 3.10732,-0.64914 5.70598,-1.29736 z m 32.44414,-36.68002 -0.79182,-0.94123 5.31178,-4.29719 5.31178,-4.29719 3.38278,0.75316 c 1.86053,0.41426 4.31266,0.97953 5.44917,1.25621 l 2.06639,0.50305 -1.0731,1.61582 -1.07312,1.61583 -4.60839,-0.19615 -4.60841,-0.19612 -3.75682,2.39013 c -2.06625,1.31457 -3.99568,2.4677 -4.28762,2.56251 -0.29546,0.0959 -0.88184,-0.24489 -1.32262,-0.76883 z m -146.07511,-0.27761 c 0,-0.65506 5.87231,-3.68381 11.9465,-6.16164 11.20667,-4.57153 23.79087,-7.27764 33.84308,-7.27764 3.27671,0 3.18469,0.0955 -2.99516,3.10801 l -4.49636,2.19186 1.94539,-0.1649 c 3.06787,-0.25999 19.39413,-1.1488 21.10246,-1.1488 l 1.54216,0 -1.84407,1.82699 c -1.01423,1.00484 -1.78626,1.82708 -1.7156,1.82722 0.97375,0.003 16.53399,1.98258 16.70398,2.12645 0.12904,0.10922 -0.0156,0.2029 -0.32136,0.20821 -0.30579,0.005 -9.82771,0.81275 -21.15985,1.79437 -11.33212,0.98159 -20.68245,1.72044 -20.77852,1.64184 -0.0961,-0.0786 1.04714,-1.18502 2.54044,-2.45873 1.78057,-1.51873 2.48303,-2.31583 2.04088,-2.31583 -0.37082,0 -6.08154,0.90492 -12.69048,2.01092 -6.60895,1.10599 -12.0944,1.94478 -12.18987,1.86397 -0.0955,-0.0809 2.40685,-1.31926 5.56074,-2.75213 3.15389,-1.43282 5.57858,-2.64909 5.38821,-2.70281 -0.19039,-0.0537 -5.76335,1.45499 -12.38436,3.35263 -7.82133,2.24168 -12.03821,3.30306 -12.03821,3.03001 z m 267.95859,-1.00151 c -0.125,-0.10582 0.18912,-1.33477 0.69806,-2.73096 0.50892,-1.39623 0.84922,-2.603 0.75621,-2.68172 -0.0931,-0.0787 -3.27668,0.49023 -7.07485,1.26431 -3.79814,0.77411 -7.01093,1.31842 -7.13954,1.20956 -0.30548,-0.25856 -0.49849,-0.15393 4.01775,-2.17797 5.85406,-2.62362 11.57742,-5.37557 11.57742,-5.56675 0,-1.08214 -26.62726,6.50416 -32.76995,9.3364 -1.29641,0.59773 -2.70661,1.01873 -3.13768,0.93675 -1.04625,-0.19905 -4.12274,-2.0079 -4.12274,-2.42403 0,-0.40751 3.4025,-1.71272 11.57741,-4.44118 12.27146,-4.09568 23.9794,-7.17061 29.23787,-7.67891 l 2.1585,-0.20864 1.3584,1.54005 c 0.74712,0.84706 1.71844,1.60051 2.1585,1.67442 0.44005,0.0739 5.39181,0.44589 11.00391,0.8267 13.20084,0.89576 14.7081,1.04292 13.72716,1.34005 -0.42688,0.12932 -4.87825,0.66426 -9.89193,1.18878 -5.01369,0.52447 -8.98729,1.04855 -8.83023,1.16458 0.15706,0.11603 5.18633,0.71259 11.17617,1.32567 5.98984,0.6131 10.89021,1.19495 10.88974,1.29305 0,0.0981 -8.08012,1.20185 -17.95479,2.45285 -9.87467,1.25102 -18.23164,2.33639 -18.571,2.41196 -0.33939,0.0756 -0.71936,0.0509 -0.84439,-0.055 z M 253.52458,542.09578 c -9.85567,-1.14482 -20.22874,-4.41819 -31.8602,-10.054 -2.44303,-1.18369 -5.58978,-2.63731 -6.9928,-3.23022 -3.64425,-1.54009 -8.33866,-5.63847 -10.46312,-9.13466 -6.56283,-10.80039 -7.45833,-27.27212 -2.63667,-48.49834 0.88914,-3.91424 1.20206,-4.66026 3.3441,-7.97233 4.91559,-7.60058 10.68826,-14.2029 17.08683,-19.5426 6.99682,-5.8389 13.8822,-9.54055 21.15063,-11.37077 4.33168,-1.09075 12.02602,-1.47182 16.40626,-0.81261 11.84224,1.78228 23.91018,8.64001 35.66278,20.26576 1.93927,1.91834 3.74212,3.63738 4.00633,3.82008 0.26421,0.18269 2.55665,6.4609 5.0943,13.95157 4.60102,13.5813 4.6186,13.62358 6.28833,15.11421 5.89444,5.2622 8.45314,9.84483 8.45314,15.13952 0,5.76818 -3.01407,10.55088 -9.55094,15.15542 -1.59572,1.12403 -3.28968,2.86652 -5.36766,5.52148 -9.06624,11.58345 -19.88946,18.48968 -32.96086,21.0321 -3.84326,0.7475 -13.59705,1.08739 -17.66045,0.61539 z m 14.24746,-0.82368 c 14.05253,-1.79281 26.89861,-9.55669 36.14359,-21.84434 l 1.43707,-1.91004 -1.59751,0 c -3.04847,0 -7.06842,-2.50394 -10.39927,-6.47751 -6.33264,-7.55459 -7.81049,-16.36962 -3.6618,-21.84186 2.4917,-3.28663 8.28791,-5.6561 15.05801,-6.15566 l 3.22289,-0.23782 -4.43902,-12.95503 c -2.44148,-7.12527 -4.44976,-13.01555 -4.46286,-13.08957 -0.0131,-0.074 -0.33289,0.0901 -0.71063,0.3647 -0.37773,0.27458 -0.90275,0.60301 -1.16669,0.72987 -0.29969,0.14403 -4.72494,-3.12306 -11.78527,-8.7009 l -11.30537,-8.9315 -10.10101,-1.58188 -10.101,-1.58183 -3.997,0.56566 c -16.62419,2.35287 -29.22668,10.94674 -37.37856,25.48916 -3.30545,5.89674 -4.90861,10.41166 -7.46375,21.02005 -0.35203,1.46158 -0.92642,3.70381 -1.27642,4.9827 -1.00141,3.65926 -0.86459,12.02762 0.26581,16.258 1.75297,6.5602 4.69611,12.33253 9.2513,18.14436 3.84373,4.90412 5.51427,6.29372 10.30713,8.57391 16.62577,7.90961 30.88369,10.87339 44.16036,9.17953 z m 163.96894,-3.20673 c -13.11329,-1.1602 -23.703,-4.89693 -31.38926,-11.07609 -3.10451,-2.4958 -5.62101,-5.28134 -7.2455,-8.0201 -0.85665,-1.44421 -1.22069,-1.73757 -2.38577,-1.92255 -2.24472,-0.35646 -7.30076,-2.68164 -10.12226,-4.65505 -3.07155,-2.14828 -5.32962,-4.56233 -6.86694,-7.34121 -0.97258,-1.75814 -1.09671,-2.36041 -1.09671,-5.32184 0,-3.2071 0.0601,-3.44225 1.51707,-5.93719 1.13125,-1.93714 2.32894,-3.29273 4.70945,-5.3303 1.75581,-1.50285 3.8105,-3.12432 4.56597,-3.60325 l 1.37359,-0.87079 0.11872,-12.8472 0.11868,-12.84721 1.22281,-1.52936 c 3.72655,-4.66066 11.34045,-11.64631 16.39648,-15.04355 18.43708,-12.38823 41.88317,-14.48463 62.73763,-5.6096 7.02124,2.98803 15.59787,8.57896 20.29257,13.22832 10.08706,9.98966 15.02131,21.23467 15.19509,34.62911 0.13194,10.17192 -0.39069,22.62723 -1.05225,25.07536 -2.51484,9.30666 -7.84552,16.4711 -16.13117,21.68035 -3.50942,2.20637 -4.69313,2.62157 -11.55729,4.0536 -14.91279,3.11113 -29.23225,4.27672 -40.40091,3.28855 z m 22.72033,-1.09829 c 2.26642,-0.27155 5.66073,-0.74043 7.54286,-1.04195 l 3.42213,-0.5482 1.0911,-2.28191 1.09114,-2.28191 1.80136,-0.004 c 2.69813,-0.007 7.4973,-1.15705 10.67889,-2.561 4.36798,-1.92745 8.64794,-5.72557 10.9686,-9.73376 3.69272,-6.37802 4.47963,-11.50769 3.87281,-25.2457 -0.53738,-12.1662 -1.46719,-17.49887 -4.40196,-25.24571 -5.23315,-13.81389 -16.86107,-24.47322 -30.96502,-28.38571 -6.35556,-1.76305 -17.33445,-3.02301 -23.35105,-2.67983 -15.26475,0.87078 -28.78469,6.32156 -40.42281,16.29719 -2.1585,1.85016 -4.63097,4.20372 -5.49438,5.23012 -1.70442,2.02624 -2.0844,2.17213 -3.54589,1.36161 l -0.96733,-0.53647 0,9.78739 c 0,5.38309 -0.11159,10.90473 -0.24795,12.27035 l -0.24799,2.48291 2.69957,0.56388 c 6.03807,1.26123 10.55044,3.94003 12.60674,7.48419 0.99296,1.71133 1.08404,2.1894 1.08404,5.68842 0,3.12356 -0.16765,4.24403 -0.9196,6.14534 -1.13293,2.86472 -3.8521,7.49934 -6.2098,10.58426 l -1.77202,2.31852 0.91862,1.67808 c 1.37065,2.5038 4.97722,6.45928 7.92334,8.68984 7.33031,5.54983 18.07199,9.26836 30.10343,10.42112 4.4197,0.42347 17.6041,0.15852 22.74117,-0.45698 z m -285.87424,93.56711 c -0.67805,-0.54818 -0.68859,-0.53927 -0.23917,0.20242 0.25854,0.42675 0.57772,0.68476 0.70928,0.57342 0.13155,-0.11135 -0.08,-0.46048 -0.47011,-0.77584 z m -0.20146,-52.0737 1.00482,-1.50445 -1.44956,-10.53575 c -0.79725,-5.79466 -1.47016,-10.58407 -1.49537,-10.64316 -0.0252,-0.0592 -0.973,0.33902 -2.10622,0.88469 -5.00169,2.40844 -10.36235,2.67954 -14.97537,0.75733 -4.43333,-1.84731 -9.43343,-6.66582 -12.59786,-12.14035 -0.99515,-1.72163 -1.20311,-1.85676 -9.19097,-5.97291 -9.47103,-4.88042 -8.50619,-3.63554 -8.90588,-11.49057 -0.54923,-10.79364 1.60984,-18.58686 6.09503,-22.00008 2.93993,-2.23731 6.4031,-2.79527 11.03605,-1.77806 1.17995,0.25906 2.1869,0.43588 2.23766,0.39293 0.13013,-0.11014 -5.56929,-14.08202 -5.83669,-14.30834 -0.12077,-0.10223 -2.27628,1.89044 -4.79002,4.42814 -4.10644,4.14561 -5.76754,5.6843 -5.74307,5.31987 0.005,-0.068 1.22101,-2.88386 2.7032,-6.25736 l 2.6949,-6.13363 -2.40263,-4.08267 c -1.32144,-2.24547 -2.52823,-4.0445 -2.68174,-3.99785 -0.15352,0.0467 -2.66042,2.34625 -5.57088,5.11026 l -5.29177,5.02549 -0.39934,10.55267 c -0.21964,5.80396 -0.54665,10.67734 -0.72668,10.82971 -0.41758,0.35348 -5.60404,-1.05763 -5.59342,-1.52179 0.005,-0.19113 0.60114,-4.45822 1.32613,-9.48245 l 1.3182,-9.13496 5.1447,-7.41689 5.14469,-7.41692 -3.74036,-4.11549 c -2.05719,-2.26353 -3.86529,-4.17749 -4.01799,-4.2533 -0.1527,-0.0757 -1.61355,-0.0628 -3.24634,0.0289 l -2.9687,0.16665 -1.81934,7.1852 c -1.00063,3.95185 -2.035137,9.09107 -2.298919,11.42049 -0.33585,2.96605 -0.62754,4.23531 -0.973287,4.23531 -0.271549,0 -1.377723,-0.71004 -2.458188,-1.57787 l -1.964483,-1.57785 1.920496,-8.63669 c 1.977552,-8.89327 2.718879,-10.86944 4.900861,-13.06432 1.59706,-1.60649 3.68195,-2.38207 6.4034,-2.38207 8.08353,0 18.82612,10.16924 32.05788,30.34697 6.19708,9.4502 7.85258,13.6299 7.57152,19.11602 -0.19277,3.76287 -0.97932,5.52615 -3.49579,7.8369 -2.54994,2.3415 -6.45317,4.00895 -10.85906,4.639 -1.51564,0.21674 -1.91846,0.0892 -5.59251,-1.77056 l -3.95923,-2.00415 0.27797,2.39201 c 0.15288,1.3156 0.47177,3.83598 0.70865,5.60086 l 0.4307,3.20883 5.88523,3.98241 5.88523,3.98241 2.1459,-2.00714 c 2.85433,-2.66969 5.84878,-3.90415 9.47137,-3.90451 4.08059,0 6.82894,1.00527 13.13015,4.80459 0.29229,0.17626 0.64745,0.22226 0.78924,0.10223 0.1418,-0.12005 -0.99623,-6.04226 -2.52896,-13.16052 l -2.78677,-12.94224 -4.91159,-11.40914 c -5.09337,-11.83137 -7.5349,-16.5682 -10.64062,-20.64381 -6.10279,-8.00871 -14.8728,-15.42928 -25.26107,-21.37418 -2.05517,-1.17611 -4.79628,-2.79579 -6.09138,-3.59931 -4.94295,-3.06672 -9.299526,-4.26383 -12.650055,-3.47607 -2.79354,0.65683 -5.878157,3.40209 -7.469309,6.64764 -2.169009,4.42424 -2.78017,8.19019 -3.365611,20.73904 l -0.526903,11.29413 1.308339,9.18382 c 1.44831,10.16638 1.694787,10.96303 6.100129,19.71587 12.61459,25.06364 31.45401,44.352 51.99711,53.23616 7.24615,3.13372 12.79462,4.62037 22.49335,6.02688 0.10788,0.0156 0.64839,-0.64855 1.20103,-1.47598 z m 382.81575,-1.62028 c 6.04485,-1.30636 6.50438,-1.4675 12.30989,-4.31681 l 6.0306,-2.95982 7.83705,-7.33777 c 6.58146,-6.16222 9.24034,-8.99558 16.59616,-17.68542 8.64923,-10.2178 8.82877,-10.46428 14.30688,-19.64365 l 5.54775,-9.29603 0.7446,-5.10378 c 1.7173,-11.77082 2.73733,-21.62069 3.17487,-30.6584 0.52032,-10.74673 0.40902,-12.61704 -1.01829,-17.1116 -2.70841,-8.52883 -7.67701,-12.65531 -15.21194,-12.63372 -3.54995,0.01 -5.42749,0.36225 -9.9898,1.87306 -7.85625,2.60168 -17.34053,8.264 -27.99948,16.71639 -4.31256,3.41982 -4.86777,4.02005 -10.7589,11.63142 l -6.2117,8.02552 -1.69599,6.09989 c -1.6069,5.77924 -1.77916,6.90853 -3.27696,21.4818 -0.86948,8.46004 -2.4614,21.07174 -3.53758,28.02593 -1.07616,6.95419 -1.95667,12.88823 -1.95667,13.18676 0,0.4823 0.16405,0.49482 1.47171,0.11235 l 1.4717,-0.43041 0.19623,-4.1682 0.19622,-4.16816 6.04522,-6.20989 c 3.32488,-3.41544 6.28109,-6.28647 6.5693,-6.38009 0.28822,-0.0937 3.01974,0.29694 6.07009,0.86789 4.42964,0.8291 5.66219,0.95652 6.12284,0.6329 0.94622,-0.66468 3.86588,-4.29429 5.02409,-6.24578 2.2727,-3.82934 3.6569,-8.97993 3.04948,-11.34732 l -0.30728,-1.19771 -2.94342,0.99728 c -15.45603,5.23672 -20.51822,-0.85969 -14.13863,-17.02724 0.82905,-2.10103 3.97921,-8.40582 7.00036,-14.01064 l 5.49299,-10.19056 8.27581,-7.93405 8.27581,-7.93407 6.67067,-2.08602 6.67066,-2.08607 4.02717,1.91054 4.02722,1.91057 3.00785,5.84335 3.00784,5.84336 -1.00998,5.97924 c -0.55548,3.28859 -1.0462,6.0213 -1.09051,6.07266 -0.0443,0.0513 -0.61199,-0.16473 -1.2615,-0.48027 -1.07196,-0.52069 -1.20339,-0.77464 -1.42398,-2.75085 -0.13364,-1.19745 -0.24427,-3.56927 -0.24581,-5.27074 -0.003,-3.02214 -0.058,-3.2075 -2.39224,-8.02644 l -2.38942,-4.93288 -2.59871,-0.5954 -2.59872,-0.5954 -5.07754,2.25673 c -3.7722,1.67655 -6.16903,3.03766 -9.32327,5.29456 -2.33518,1.67081 -4.11924,3.12535 -3.96457,3.23235 0.15466,0.107 3.09465,1.3053 6.53331,2.66292 l 6.25211,2.4684 3.64983,4.15226 3.64983,4.15225 0.007,8.38755 c 0.005,4.61316 -0.0858,8.38756 -0.19989,8.38756 -0.11402,0 -1.25887,-0.44927 -2.54401,-0.99837 -1.57986,-0.67499 -2.39981,-1.23983 -2.53171,-1.74395 -0.10731,-0.41008 -0.73354,-4.40787 -1.39165,-8.88399 -0.65815,-4.47614 -1.263,-8.3003 -1.3442,-8.49811 -0.0811,-0.19785 -2.41615,-1.55746 -5.18888,-3.02135 -2.77269,-1.46392 -6.02743,-3.19667 -7.23277,-3.85056 l -2.19151,-1.18891 -3.30286,4.00078 c -1.81655,2.20046 -3.25788,4.18165 -3.20293,4.40268 0.055,0.221 0.98215,2.2484 2.06038,4.50527 1.07827,2.25689 1.96047,4.22567 1.96047,4.37507 0,0.80588 -0.93691,-0.0565 -3.15624,-2.90534 -1.9107,-2.45265 -2.55249,-3.05982 -2.81485,-2.66303 -0.46054,0.69659 -6.58746,11.77789 -6.58746,11.91429 0,0.0596 1.19208,0.10483 2.64907,0.10049 3.30349,-0.01 5.15038,0.74827 7.72295,3.17013 7.45895,7.02199 8.98447,21.07914 3.42543,31.56388 -4.50691,8.50033 -14.94911,16.46711 -27.10334,20.67823 -2.5886,0.89689 -3.80003,1.59725 -6.81632,3.94076 l -3.66815,2.85 -1.83296,5.92194 c -2.14657,6.9353 -2.72614,9.10985 -2.48298,9.31571 0.35192,0.29782 10.66618,1.32134 11.62321,1.15336 0.53963,-0.0947 3.80681,-0.78286 7.26041,-1.52923 z M 159.51062,556.05928 c 0.88016,-0.36065 2.47301,-1.40565 3.53967,-2.32228 l 1.93937,-1.66657 -0.90117,-1.58085 c -1.60038,-2.80739 -5.08329,-6.94706 -7.2647,-8.63453 -3.01738,-2.33417 -4.58201,-2.9117 -7.88835,-2.9117 -3.10638,0 -5.18129,0.80358 -7.61987,2.951 l -1.3406,1.18053 0.75191,1.41924 c 1.32492,2.50072 4.49898,6.319 7.04263,8.47199 4.11877,3.4862 8.17434,4.55464 11.74111,3.09317 z m 386.92995,-1.89336 c 7.59149,-3.85044 14.39393,-8.33504 15.97831,-10.53391 0.66659,-0.92512 0.66187,-1.00843 -0.13637,-2.39914 -0.64798,-1.12891 -1.00233,-1.41117 -1.63709,-1.30414 -0.44551,0.0751 -2.4878,0.22672 -4.53838,0.33693 l -3.72832,0.20034 -4.2181,3.55072 c -4.60781,3.8787 -4.41892,3.54503 -4.78991,8.46298 -0.154,2.04158 -0.0879,2.90659 0.22228,2.90659 0.24282,0 1.52422,-0.54916 2.84758,-1.22037 z M 136.2114,520.08422 c 2.82784,-1.61301 4.151,-4.75793 3.79142,-9.01157 -0.2173,-2.57061 -0.56291,-2.95639 -3.18361,-3.55369 -2.05016,-0.46727 -4.54121,0.062 -7.16173,1.52146 -3.07342,1.71175 -6.03536,5.09414 -6.03536,6.89207 0,3.47806 8.72558,6.35558 12.58928,4.15173 z m 430.36849,-1.18446 c 3.71748,-1.60526 5.85173,-4.63667 5.53568,-7.86261 -0.24881,-2.53952 -1.72675,-4.24823 -4.97824,-5.75553 -2.41697,-1.12047 -2.57596,-1.1484 -4.317,-0.75843 -5.14768,1.15306 -7.69497,4.5425 -6.73994,8.96824 0.46133,2.13781 1.87943,4.9274 2.84134,5.58927 1.364,0.93857 5.2798,0.84602 7.65816,-0.18094 z M 143.93019,478.8031 c -0.10511,-0.46532 0.28466,-2.67017 0.86613,-4.89967 l 1.05723,-4.05359 4.76543,-6.14533 4.76545,-6.14534 -1.94902,-0.72861 c -1.07196,-0.40074 -1.94581,-0.84919 -1.94191,-0.99654 0.003,-0.14735 0.50675,-2.18429 1.11742,-4.52652 1.10124,-4.2237 1.10358,-4.25723 0.28725,-4.09453 -1.79688,0.35816 -11.6917,1.58972 -11.83024,1.47247 -0.0813,-0.0688 -0.43075,-6.16946 -0.77661,-13.55701 -0.34585,-7.38757 -0.67119,-13.46777 -0.72296,-13.51161 -0.1472,-0.12457 -2.99524,4.15212 -2.99524,4.49772 0,0.16944 -4.59096,7.08956 -10.20216,15.37806 l -10.20214,15.07002 1.07758,0.72635 c 0.59268,0.39951 3.37345,2.26085 6.17949,4.13635 6.48416,4.33385 14.99223,11.54462 18.05291,15.30022 1.2951,1.58915 2.41947,2.89705 2.4986,2.90648 0.0791,0.01 0.0579,-0.36357 -0.0472,-0.82892 z m 422.12278,-19.13898 8.17993,-8.41638 3.20125,-0.80547 c 1.76071,-0.443 3.26154,-0.84278 3.3352,-0.88842 0.0736,-0.0456 -0.52734,-1.10324 -1.33551,-2.35024 -2.25345,-3.47716 -25.00894,-35.33489 -25.15243,-35.21344 -0.0695,0.0588 0.49898,3.14484 1.26325,6.85786 l 1.38959,6.7509 -0.41361,6.82986 c -0.2275,3.75639 -0.4136,7.17669 -0.4136,7.60058 l 0,0.77076 -10.7925,-0.19674 c -5.93588,-0.1082 -10.79251,-0.12421 -10.79251,-0.0356 0,0.0887 1.76605,1.17229 3.92455,2.40821 4.31688,2.47175 4.1798,2.24593 3.50854,5.7804 -0.36423,1.91788 -0.61607,2.33725 -2.25362,3.75264 l -1.8436,1.59347 2.55096,2.04908 c 1.40302,1.12703 5.06756,4.11718 8.14343,6.64487 l 5.59248,4.59576 0,2.72361 0,2.72364 1.86364,-2.37948 c 1.02498,-1.30868 5.54456,-6.16682 10.04351,-10.79586 z M 125.01924,434.9709 c 5.13747,-7.67336 9.80611,-14.62424 10.37474,-15.44639 0.69608,-1.0064 5.29453,-4.7337 14.07377,-11.40763 12.37164,-9.40482 13.76805,-10.35509 27.24893,-18.54367 12.85187,-7.80647 14.26836,-8.75926 14.83012,-9.97538 0.60264,-1.30461 1.06269,-1.55643 15.50313,-8.48598 12.63933,-6.06524 16.44934,-7.71645 25.2821,-10.95694 20.72552,-7.60357 36.71778,-12.77097 42.84402,-13.84371 1.58231,-0.27711 4.73128,-0.87313 6.99771,-1.32457 4.67623,-0.9314 16.50059,-2.92365 21.78123,-3.66986 8.12195,-1.14772 13.4429,-1.56245 21.97745,-1.71299 4.96455,-0.0876 10.43929,-0.23395 12.1661,-0.32531 10.31612,-0.54587 15.41932,-0.63988 34.73222,-0.63988 21.62935,0 27.4847,0.23701 33.26025,1.34626 1.34886,0.25911 7.17682,0.77884 12.951,1.155 10.05527,0.65506 10.71378,0.74063 15.60035,2.02706 3.32719,0.87593 11.4499,3.74816 23.35104,8.25708 18.04557,6.83676 18.38049,6.9815 30.02278,12.97194 10.57574,5.44168 31.66735,17.58407 39.72938,22.87214 1.56127,1.02408 8.36054,6.09886 15.10951,11.27729 l 12.27083,9.41535 13.20488,20.48089 c 7.26269,11.2645 13.46056,20.52472 13.77299,20.57834 0.68111,0.11682 17.9957,-4.19504 18.52096,-4.6123 0.59323,-0.47123 -0.82518,-6.3474 -2.38558,-9.88299 -4.3949,-9.95804 -13.12646,-21.07379 -27.9605,-35.59531 -9.12461,-8.93237 -32.85892,-28.57579 -44.39061,-36.73932 -33.84356,-23.95871 -76.75254,-38.3846 -122.44582,-41.16607 -1.83472,-0.11168 -7.48607,-0.33619 -12.55855,-0.49891 -5.07247,-0.16272 -10.72382,-0.47952 -12.55854,-0.70398 -4.52257,-0.55331 -24.97862,-0.55813 -31.98505,-0.008 -29.37713,2.30859 -63.32333,8.32073 -99.07039,17.54614 -11.94712,3.08323 -19.64201,5.64238 -29.45847,9.79723 -19.46813,8.23997 -38.32273,19.33984 -59.65309,35.11834 -10.80793,7.99485 -33.45335,27.53154 -40.96047,35.33748 -1.09042,1.13383 -3.55303,5.5112 -8.776,15.59965 -3.99314,7.71296 -7.10736,14.0681 -6.92051,14.12255 0.18686,0.0544 2.98882,1.12324 6.22656,2.37516 l 5.88682,2.2762 1.03193,-1.53193 c 0.56756,-0.84253 5.23531,-7.81008 10.37278,-15.48344 z m -25.078986,12.87199 c 2.734656,-5.58199 14.519266,-28.09917 15.255336,-29.14883 2.06568,-2.9457 19.98829,-19.31353 29.58251,-27.01623 25.19268,-20.22593 47.37477,-34.18365 70.08971,-44.10279 12.19021,-5.32322 19.15322,-7.63313 35.32091,-11.71733 34.06183,-8.6045 65.30586,-14.10148 93.99286,-16.53679 9.51482,-0.80775 29.21184,-0.81639 35.97635,-0.0157 2.6269,0.3109 6.6005,0.56745 8.83022,0.57009 5.73624,0.007 16.79592,0.56437 23.48052,1.18369 41.63511,3.85751 80.75314,17.54052 112.09326,39.20887 9.61326,6.64653 28.01195,21.33147 37.68965,30.08203 24.11673,21.80634 36.9286,38.69237 39.10276,51.53739 l 0.49594,2.93012 2.57262,0.91868 2.57266,0.91868 10.23082,-10.8246 c 5.62694,-5.95353 12.87286,-13.73948 16.10206,-17.30211 3.22916,-3.56263 14.38644,-15.74535 24.7939,-27.0727 10.4075,-11.32735 19.00673,-20.76171 19.10944,-20.96522 0.10268,-0.20353 -5.79805,-10.35849 -13.11282,-22.56658 l -13.29953,-22.19653 -23.51458,-21.2872 -23.51458,-21.28719 -26.65882,-18.92832 c -25.59643,-18.17403 -27.01959,-19.12775 -35.71336,-23.93288 -15.77706,-8.72017 -26.90704,-15.38572 -28.8104,-17.25404 -0.9935,-0.97522 -8.73922,-4.2461 -15.36884,-6.48998 -10.99551,-3.72158 -28.95839,-8.72843 -47.57632,-13.26108 -9.32381,-2.26993 -9.94193,-2.37197 -29.14854,-4.81226 -10.7925,-1.37123 -20.59406,-2.72048 -21.78122,-2.99833 -24.35632,-5.70046 -75.62141,-1.35834 -133.82701,11.33504 -5.50418,1.20034 -11.50873,2.38447 -13.34345,2.63138 -4.49502,0.60495 -8.48274,1.51055 -15.50196,3.52044 -11.36529,3.25437 -28.76493,9.15079 -46.70209,15.82651 -19.38266,7.21369 -18.90885,6.99885 -36.49828,16.54889 -21.5785,11.71588 -35.3351,20.49838 -50.74817,32.39869 -13.918796,10.74659 -12.501381,9.54477 -26.381828,22.36906 -6.723351,6.21177 -12.520423,11.38856 -12.882399,11.50397 -1.915785,0.6108 -8.647922,7.7603 -15.853322,16.83616 l -2.98413,3.7588 5.171881,6.09032 c 2.844542,3.34971 17.887408,21.00446 33.428609,39.23279 15.541201,18.22837 28.407139,33.35483 28.590969,33.61433 0.23862,0.33686 0.15971,0.43927 -0.27576,0.35796 -0.50627,-0.0945 -28.837262,-33.11436 -60.022883,-69.95682 -3.905769,-4.61422 -7.227683,-8.27651 -7.382041,-8.13842 -0.796195,0.71246 -20.694284,36.11485 -20.473262,36.42576 1.33494,1.87792 13.871117,16.84889 18.94228,22.62129 3.531117,4.01938 11.016191,12.53981 16.633508,18.93428 5.617316,6.39448 14.019861,15.66231 18.672339,20.59519 4.652467,4.93287 10.08857,10.7161 12.08022,12.85159 3.944338,4.22922 3.581552,4.04489 8.266048,4.19985 1.602622,0.0531 1.718805,-0.007 2.298215,-1.18984 z M 505.97886,416.57967 c 9.58597,-7.90344 16.73539,-16.48014 20.11271,-24.12786 l 0.88015,-1.99308 -11.82492,-6.86281 -11.8249,-6.86282 -0.25906,6.19846 c -0.14246,3.40914 -0.54363,9.11334 -0.89146,12.67597 -0.79366,8.12882 -2.51273,23.38952 -2.79957,24.85244 -0.20612,1.05118 -0.17641,1.08361 0.65026,0.70911 0.47643,-0.21583 3.15698,-2.28106 5.95679,-4.58941 z M 178.93142,404.4611 c 2.63496,-8.19353 4.72962,-14.94914 4.6548,-15.01249 -0.0748,-0.0633 -3.77756,1.9672 -8.2283,4.51226 l -8.09226,4.62745 0.33388,1.25009 c 2.18588,8.18442 5.53605,20.2924 5.72272,20.68265 0.29208,0.61067 -0.26376,2.20216 5.60916,-16.05996 z m 148.75341,-11.81938 11.69548,-15.64482 12.8595,-11.78812 c 7.07273,-6.48351 12.95525,-11.78816 13.07226,-11.78816 0.11702,0 1.41979,0.41107 2.89503,0.9135 2.24436,0.76435 2.65279,1.02196 2.5017,1.57786 -0.27169,0.99963 -7.29694,35.56237 -7.29694,35.89939 0,0.16054 3.4428,-4.03934 7.65066,-9.33314 l 7.65066,-9.62506 15.84449,-14.11766 c 8.71449,-7.76471 15.73551,-14.15494 15.60227,-14.20044 -0.13319,-0.0456 -9.60227,-0.88085 -21.04232,-1.85626 l -20.80008,-1.77348 -10.0076,0.57328 c -5.50417,0.31527 -16.13627,0.84394 -23.62688,1.17476 l -13.61928,0.6015 -0.2016,1.67804 c -0.11089,0.9229 -0.4865,9.82474 -0.83471,19.78185 l -0.63312,18.10383 -1.93097,12.66104 c -2.09301,13.72351 -2.03518,13.28184 -1.70252,13.00029 0.12567,-0.10635 5.49145,-7.23356 11.92397,-15.8382 z M 298.90175,386.321 c -0.91837,-9.32081 -8.31909,-19.93969 -21.71659,-31.15995 -2.67466,-2.23999 -5.25515,-4.29017 -5.73441,-4.55595 -0.8058,-0.44692 -1.74182,-0.20885 -12.44029,3.16402 -10.19585,3.21441 -13.50922,4.46174 -27.91701,10.50935 l -16.3481,6.86202 -1.82679,5.83906 c -1.00473,3.21146 -1.90638,6.07432 -2.00368,6.36185 -0.14188,0.41938 1.4746,0.96216 8.16729,2.74258 4.5893,1.22084 8.52079,2.21811 8.73664,2.21615 0.21584,-0.003 1.15616,-1.26923 2.0896,-2.81617 4.10436,-6.80192 11.23263,-14.29452 16.79678,-17.65518 4.73981,-2.86283 9.54527,-4.23042 14.86471,-4.23042 5.9837,0 9.05966,1.05275 16.12755,5.51968 7.54166,4.76632 16.60951,13.00459 20.10725,18.26769 0.57661,0.86762 1.11792,1.57766 1.20292,1.57786 0.085,1.7e-4 0.0374,-1.18898 -0.10592,-2.64259 z m 101.90898,-11.75862 c 8.09249,-5.63365 16.2382,-9.63583 22.8429,-11.22315 4.37791,-1.05215 11.11156,-1.05095 14.52081,0.003 7.18714,2.22103 13.42973,8.46974 16.92484,16.94147 0.40459,0.98069 0.94873,1.8537 1.20915,1.94007 1.0165,0.33699 14.98521,-5.13574 16.15587,-6.32963 0.36773,-0.37507 -0.43272,-2.37662 -3.91136,-9.78062 l -4.37371,-9.30909 -15.74143,-4.89594 c -18.27846,-5.685 -15.99602,-5.47938 -23.99926,-2.16203 -13.22223,5.48064 -25.42859,16.48797 -34.67957,31.27302 -1.32406,2.11615 -2.40739,3.95338 -2.40739,4.08277 0,0.12938 2.10384,-1.54547 4.67515,-3.72192 2.57136,-2.17641 6.52413,-5.24433 8.784,-6.81754 z m 281.79066,-12.2742 c 0.9765,-2.06541 2.59062,-6.46234 3.58699,-9.77093 l 1.81152,-6.01561 -5.93901,-10.17492 -5.93901,-10.17491 -20.80328,-22.32411 c -19.21681,-20.62171 -21.39124,-22.83076 -28.5137,-28.96773 -4.24075,-3.65399 -9.59638,-8.2879 -11.90138,-10.2976 -2.30504,-2.00969 -4.60055,-3.86274 -5.10116,-4.11789 -0.50062,-0.25516 -12.47778,-7.28793 -26.61596,-15.62839 -14.13817,-8.34045 -27.91333,-16.34086 -30.61145,-17.7787 -2.69813,-1.43783 -9.65995,-5.31718 -15.47072,-8.62078 -5.81075,-3.3036 -11.02059,-6.23732 -11.5774,-6.51938 -0.55682,-0.28206 -2.04266,-1.07943 -3.30185,-1.77194 -6.31071,-3.47063 -22.89591,-8.68607 -53.83334,-16.92862 -43.32949,-11.54412 -36.41738,-9.95691 -54.54938,-12.52608 -8.84984,-1.25396 -17.59177,-2.58812 -19.42649,-2.9648 -6.59604,-1.35418 -10.92134,-1.73185 -21.87071,-1.90969 -23.9628,-0.3892 -52.48602,2.58615 -92.92225,9.69302 -22.29849,3.91908 -23.22961,4.14915 -59.79894,14.77602 l -34.0142,9.88435 -18.04466,8.15327 c -17.39648,7.86039 -21.19702,9.77673 -43.55421,21.96127 -1.51095,0.82346 -8.59895,5.13264 -15.75111,9.57597 -11.302895,7.022 -14.071444,8.92609 -21.164781,14.55628 -4.488466,3.56264 -8.556592,6.85122 -9.040273,7.30797 -0.48368,0.45676 -11.445664,11.45006 -24.359942,24.42956 -12.914289,12.97952 -24.950858,25.01275 -26.747936,26.74052 -11.387128,10.94802 -16.273118,22.05656 -13.989557,31.80599 0.617388,2.63588 3.298878,7.73113 4.994174,9.48969 l 0.915885,0.95007 3.28419,-4.93623 c 10.934237,-16.43449 31.957159,-42.99584 37.481143,-47.35543 5.388642,-4.25278 8.73255,-7.17585 18.354524,-16.04455 14.884444,-13.71917 29.452553,-24.95812 46.612363,-35.96034 11.66468,-7.47896 15.78967,-9.84221 37.18311,-21.30262 7.78068,-4.16809 10.48766,-5.29987 29.33795,-12.26621 29.04658,-10.73446 51.05629,-17.51522 60.04554,-18.49883 1.07925,-0.11809 5.67097,-1.02224 10.20382,-2.00922 61.20003,-13.32564 110.00975,-17.57439 137.35909,-11.95671 2.1585,0.44337 12.40157,1.87003 22.76237,3.17038 18.34014,2.30179 19.08663,2.42461 28.25672,4.64922 33.30624,8.07992 58.71387,16.14922 63.75366,20.24776 2.5752,2.09426 10.35432,6.75934 24.74484,14.83932 l 13.14723,7.3819 26.29446,18.66079 26.29445,18.6608 21.14148,19.15038 c 11.62785,10.5327 22.41383,20.27147 23.96889,21.64172 2.49707,2.20033 4.49109,4.84873 17.06938,22.67131 7.83312,11.09897 14.29183,20.17996 14.35274,20.17996 0.0609,0 0.90967,-1.68988 1.88618,-3.7553 z M 215.38533,200.79231 c 39.89026,-11.57045 40.3556,-11.68944 59.05936,-15.10255 25.7501,-4.69893 50.37428,-8.06216 72.28785,-9.87324 5.25912,-0.43465 10.77456,-0.58726 21.585,-0.59725 15.32931,-0.0141 18.57314,0.20924 26.29445,1.81084 1.7268,0.35819 10.57661,1.69879 19.66625,2.97911 15.90595,2.24046 16.92292,2.42848 27.07936,5.00634 37.36501,9.48385 67.28665,18.25188 78.3899,22.97083 1.69517,0.72047 3.18048,1.22668 3.3007,1.12493 0.32773,-0.27741 -1.72056,-4.57742 -3.94507,-8.28197 -10.31151,-17.17193 -31.713,-32.62208 -58.19332,-42.0109 -2.57537,-0.91312 -11.92324,-4.67895 -20.77309,-8.36854 -14.4052,-6.00567 -16.52152,-6.79229 -20.20408,-7.50978 -3.16843,-0.61734 -11.3276,-1.34473 -35.51713,-3.16638 l -31.4037,-2.36492 -10.98873,0.86978 c -6.0438,0.47837 -13.28459,0.93696 -16.09064,1.0191 -10.77755,0.31545 -26.51616,3.60236 -52.63386,10.99229 l -13.3884,3.78821 -24.48346,12.45883 -24.48346,12.45884 -8.73916,6.43564 -8.73918,6.43565 -7.1033,8.44445 c -3.90681,4.64445 -7.71567,9.15449 -8.46414,10.02231 -0.74846,0.86783 -1.24537,1.57786 -1.10424,1.57786 0.14113,0 17.50757,-5.00376 38.59209,-11.11948 z m 202.23611,-64.86678 c 7.6281,-6.57838 13.39201,-13.82088 17.5906,-22.10301 7.5327,-14.859039 8.2076,-30.062818 2.02891,-45.704596 C 434.22317,60.47824 432.42043,57.666546 426.56631,51.468677 414.26302,38.443019 398.4741,30.464927 379.11003,27.489182 372.95054,26.542628 360.77804,26.458394 354.77785,27.3208 c -18.39926,2.644531 -31.33621,7.400663 -42.39074,15.584507 -12.33784,9.13389 -21.01437,22.956792 -24.14083,38.459605 -1.17508,5.826802 -0.76139,9.554394 2.2027,19.847998 2.75184,9.55651 6.96116,18.32725 11.69604,24.37048 2.33507,2.98029 6.77225,7.09254 9.44444,8.75285 l 1.89585,1.17795 5.63488,-0.33109 c 9.86543,-0.57967 25.28721,-0.9925 37.22748,-0.99657 23.39634,-0.008 41.54637,1.27995 53.39575,3.78896 2.0385,0.43163 3.88669,0.80096 4.107,0.82071 0.22037,0.0197 1.91735,-1.27205 3.77102,-2.87067 z m -41.09748,-12.74137 c -0.4124,-0.38716 -2.11835,-1.74914 -3.791,-3.02663 l -3.04124,-2.32271 -3.57987,1.21277 c -1.96893,0.66702 -3.66586,1.13999 -3.77093,1.05104 -0.1051,-0.089 0.6313,-1.72123 1.63641,-3.62733 l 1.82748,-3.46563 -3.39071,-4.38528 c -1.86488,-2.41191 -3.2845,-4.47517 -3.15471,-4.58503 0.1298,-0.10987 2.53256,0.40738 5.33946,1.14943 l 5.10346,1.34921 3.23214,-3.44769 c 1.7777,-1.89622 3.42251,-3.448527 3.65517,-3.44958 0.23276,-9.88e-4 0.82188,1.86076 1.30989,4.13977 l 0.88686,4.14167 4.74953,2.1356 4.74956,2.13559 -4.78394,2.02981 c -2.63117,1.11639 -4.78955,2.14076 -4.79638,2.27637 -0.0466,0.92447 -1.12995,7.13741 -1.26437,7.25118 -0.0918,0.0777 -0.50442,-0.17541 -0.91681,-0.56256 z m -36.65923,-10.68972 c -1.40293,-1.32114 -3.11464,-2.81896 -3.80379,-3.32847 l -1.25299,-0.92641 -3.22791,2.16042 c -3.07663,2.05917 -4.29032,2.49569 -3.50599,1.26099 0.19772,-0.31125 0.83216,-2.24662 1.40986,-4.30083 l 1.05037,-3.73489 -2.17679,-3.24089 c -2.54098,-3.783079 -2.60011,-3.719765 2.72903,-2.922135 l 3.47993,0.520858 0.93263,-0.918072 c 1.69263,-1.666172 5.63824,-5.100474 5.74607,-5.001444 0.0582,0.0535 0.65633,1.660897 1.32914,3.572075 0.67282,1.911179 1.35385,3.580779 1.51341,3.710228 0.15956,0.12945 1.87955,0.78533 3.8222,1.45751 1.94265,0.6722 3.66872,1.33057 3.83574,1.46305 0.16701,0.1325 -1.46659,1.02447 -3.63021,1.98217 -2.16361,0.95769 -3.94644,1.84357 -3.96183,1.9686 -0.0977,0.79368 -0.43982,3.26043 -0.76752,5.5335 -0.21002,1.4568 -0.38186,2.76476 -0.38186,2.90657 0,0.60681 -0.73894,0.0978 -3.13949,-2.16283 z m 52.19352,-20.973522 -3.33308,-2.799037 -4.317,0.636915 c -6.78192,1.000573 -6.44925,1.272831 -3.84856,-3.149412 l 2.23019,-3.79223 -1.70584,-3.684551 c -0.93823,-2.026509 -1.60121,-3.773119 -1.47334,-3.881373 0.12789,-0.108309 2.01246,0.05611 4.18795,0.365373 l 3.95544,0.562195 2.64408,-1.989914 c 1.45423,-1.094448 3.07221,-2.37875 3.59551,-2.854005 0.5233,-0.475255 1.15947,-0.864102 1.41373,-0.864102 0.29451,0 0.64733,1.296218 0.97196,3.570935 0.28033,1.96402 0.63997,3.869902 0.79919,4.235308 0.18112,0.415609 1.92221,1.343893 4.65024,2.479299 2.39837,0.998218 4.36068,1.906316 4.36068,2.017989 0,0.111684 -1.9857,0.870722 -4.41268,1.686769 l -4.41272,1.483707 -0.75563,4.38758 c -0.41561,2.413174 -0.85948,4.38758 -0.98636,4.38758 -0.12692,0 -1.73061,-1.25957 -3.56376,-2.799026 z m -34.93892,-9.996875 -3.73653,-3.162663 -1.35787,0.847943 c -0.74683,0.466367 -2.23103,1.067425 -3.29824,1.335678 -2.13948,0.537777 -6.89983,0.664209 -6.89983,0.183256 0,-0.167455 1.14792,-1.951322 2.55095,-3.964134 1.40303,-2.012824 2.55095,-3.836172 2.55095,-4.051889 0,-0.215727 -1.25381,-2.328404 -2.78623,-4.694858 -1.53244,-2.366447 -2.71166,-4.365771 -2.62048,-4.44294 0.0912,-0.07717 2.5297,0.530791 5.41896,1.351024 2.88926,0.820234 5.27526,1.491334 5.30222,1.491334 0.027,0 1.43839,-1.721671 3.1365,-3.825937 1.92795,-2.389061 3.18593,-3.667793 3.34964,-3.404849 0.14417,0.2316 0.85494,2.385284 1.57946,4.785965 l 1.31732,4.36488 4.9778,1.778202 c 2.73777,0.978011 4.90589,1.876667 4.81802,1.997022 -0.0879,0.120355 -1.97028,1.153312 -4.18306,2.295457 -2.21281,1.142144 -4.07434,2.109357 -4.13674,2.149359 -0.0624,0.04005 -0.49188,1.885588 -0.95437,4.101279 -0.46251,2.215701 -0.9424,4.028544 -1.06643,4.028544 -0.12403,0 -1.90694,-1.423204 -3.96204,-3.162673 z"
       id="path3347"
       inkscape:connector-curvature="0" />
  </g>
</svg>
